<?xml version="1.0" encoding="UTF-8" standalone="no"?>
<!-- Created with Inkscape (http://www.inkscape.org/) -->

<svg
   xmlns:dc="http://purl.org/dc/elements/1.1/"
   xmlns:cc="http://creativecommons.org/ns#"
   xmlns:rdf="http://www.w3.org/1999/02/22-rdf-syntax-ns#"
   xmlns:svg="http://www.w3.org/2000/svg"
   xmlns="http://www.w3.org/2000/svg"
   xmlns:sodipodi="http://sodipodi.sourceforge.net/DTD/sodipodi-0.dtd"
   xmlns:inkscape="http://www.inkscape.org/namespaces/inkscape"
   width="960"
   height="1024"
   id="svg3789"
   version="1.1"
   inkscape:version="0.48.1 "
   sodipodi:docname="homepage.svg">
  <title
     id="title3873">Layout 1</title>
  <defs
     id="defs3791">
    <clipPath
       id="clipPath4834"
       clipPathUnits="userSpaceOnUse">
      <path
         id="path4836"
         d="m 0,0 4316.67,0 0,1221 L 0,1221 0,0 z" />
    </clipPath>
  </defs>
  <sodipodi:namedview
     id="base"
     pagecolor="#ffffff"
     bordercolor="#666666"
     borderopacity="1.0"
     inkscape:pageopacity="0.0"
     inkscape:pageshadow="2"
     inkscape:zoom="1"
     inkscape:cx="382.65552"
     inkscape:cy="619.1173"
     inkscape:document-units="px"
     inkscape:current-layer="layer1"
     showgrid="false"
     showguides="true"
     inkscape:guide-bbox="true"
     inkscape:window-width="1920"
     inkscape:window-height="1028"
     inkscape:window-x="-8"
     inkscape:window-y="-8"
     inkscape:window-maximized="1">
    <sodipodi:guide
       orientation="1,0"
       position="0,0"
       id="guide3797" />
    <sodipodi:guide
       orientation="1,0"
       position="10,0"
       id="guide3799" />
    <sodipodi:guide
       orientation="1,0"
       position="70,0"
       id="guide3801" />
    <sodipodi:guide
       orientation="1,0"
       position="80,0"
       id="guide3803" />
    <sodipodi:guide
       orientation="1,0"
       position="90,0"
       id="guide3805" />
    <sodipodi:guide
       orientation="1,0"
       position="150,0"
       id="guide3807" />
    <sodipodi:guide
       orientation="1,0"
       position="160,0"
       id="guide3809" />
    <sodipodi:guide
       orientation="1,0"
       position="170,0"
       id="guide3811" />
    <sodipodi:guide
       orientation="1,0"
       position="230,0"
       id="guide3813" />
    <sodipodi:guide
       orientation="1,0"
       position="240,0"
       id="guide3817" />
    <sodipodi:guide
       orientation="1,0"
       position="250,0"
       id="guide3819" />
    <sodipodi:guide
       orientation="1,0"
       position="310,0"
       id="guide3821" />
    <sodipodi:guide
       orientation="1,0"
       position="320,0"
       id="guide3823" />
    <sodipodi:guide
       orientation="1,0"
       position="330,0"
       id="guide3825" />
    <sodipodi:guide
       orientation="1,0"
       position="390,0"
       id="guide3827" />
    <sodipodi:guide
       orientation="1,0"
       position="400,0"
       id="guide3829" />
    <sodipodi:guide
       orientation="1,0"
       position="410,0"
       id="guide3831" />
    <sodipodi:guide
       orientation="1,0"
       position="470,0"
       id="guide3833" />
    <sodipodi:guide
       orientation="1,0"
       position="480,0"
       id="guide3835" />
    <sodipodi:guide
       orientation="1,0"
       position="490,0"
       id="guide3837" />
    <sodipodi:guide
       orientation="1,0"
       position="550,0"
       id="guide3839" />
    <sodipodi:guide
       orientation="1,0"
       position="560,0"
       id="guide3841" />
    <sodipodi:guide
       orientation="1,0"
       position="570,0"
       id="guide3843" />
    <sodipodi:guide
       orientation="1,0"
       position="630,0"
       id="guide3845" />
    <sodipodi:guide
       orientation="1,0"
       position="640,0"
       id="guide3847" />
    <sodipodi:guide
       orientation="1,0"
       position="650,0"
       id="guide3849" />
    <sodipodi:guide
       orientation="1,0"
       position="710,0"
       id="guide3851" />
    <sodipodi:guide
       orientation="1,0"
       position="720,0"
       id="guide3853" />
    <sodipodi:guide
       orientation="1,0"
       position="730,0"
       id="guide3855" />
    <sodipodi:guide
       orientation="1,0"
       position="790,0"
       id="guide3857" />
    <sodipodi:guide
       orientation="1,0"
       position="800,0"
       id="guide3859" />
    <sodipodi:guide
       orientation="1,0"
       position="810,0"
       id="guide3861" />
    <sodipodi:guide
       orientation="1,0"
       position="870,0"
       id="guide3863" />
    <sodipodi:guide
       orientation="1,0"
       position="880,0"
       id="guide3865" />
    <sodipodi:guide
       orientation="1,0"
       position="890,0"
       id="guide3867" />
    <sodipodi:guide
       orientation="1,0"
       position="950,0"
       id="guide3869" />
    <sodipodi:guide
       orientation="1,0"
       position="960,0"
       id="guide3871" />
    <sodipodi:guide
       orientation="0,1"
       position="0,1010"
       id="guide3875" />
    <sodipodi:guide
       orientation="0,1"
       position="0,891"
       id="guide3901" />
    <sodipodi:guide
       orientation="0,1"
       position="0,877"
       id="guide3903" />
    <sodipodi:guide
       orientation="0,1"
       position="0,835"
       id="guide3905" />
    <sodipodi:guide
       orientation="0,1"
       position="0,814"
       id="guide3907" />
    <sodipodi:guide
       orientation="0,1"
       position="0,821"
       id="guide3909" />
    <sodipodi:guide
       orientation="0,1"
       position="0,345"
       id="guide3911" />
    <sodipodi:guide
       orientation="0,1"
       position="0,324"
       id="guide3913" />
    <sodipodi:guide
       orientation="0,1"
       position="0,282"
       id="guide3915" />
  </sodipodi:namedview>
  <metadata
     id="metadata3794">
    <rdf:RDF>
      <cc:Work
         rdf:about="">
        <dc:format>image/svg+xml</dc:format>
        <dc:type
           rdf:resource="http://purl.org/dc/dcmitype/StillImage" />
        <dc:title>Layout 1</dc:title>
      </cc:Work>
    </rdf:RDF>
  </metadata>
  <g
     inkscape:label="Layer 1"
     inkscape:groupmode="layer"
     id="layer1"
     transform="translate(0,-28.362183)">
    <rect
       style="fill:none;stroke:#000000;stroke-width:1;stroke-linecap:round;stroke-linejoin:round;stroke-miterlimit:4;stroke-opacity:1;stroke-dasharray:none"
       id="rect3877"
       width="940"
       height="119"
       x="10"
       y="14"
       transform="translate(0,28.362183)" />
    <rect
       style="fill:none;stroke:#000000;stroke-width:1;stroke-linecap:round;stroke-linejoin:round;stroke-miterlimit:4;stroke-opacity:1;stroke-dasharray:none"
       id="rect3879"
       width="940"
       height="42"
       x="10"
       y="175.36218" />
    <rect
       style="fill:none;stroke:#000000;stroke-width:1;stroke-linecap:round;stroke-linejoin:round;stroke-miterlimit:4;stroke-opacity:1;stroke-dasharray:none"
       id="rect3881"
       width="300"
       height="469"
       x="10"
       y="210"
       transform="translate(0,28.362183)" />
    <rect
       style="fill:none;stroke:#000000;stroke-width:1;stroke-linecap:round;stroke-linejoin:round;stroke-miterlimit:4;stroke-opacity:1;stroke-dasharray:none"
       id="rect3883"
       width="300"
       height="476"
       x="330"
       y="231.36218" />
    <rect
       style="fill:none;stroke:#000000;stroke-width:1;stroke-linecap:round;stroke-linejoin:round;stroke-miterlimit:4;stroke-opacity:1;stroke-dasharray:none"
       id="rect3885"
       width="300"
       height="469"
       x="650"
       y="238.36218" />
    <rect
       style="fill:none;stroke:#000000;stroke-width:1;stroke-linecap:round;stroke-linejoin:round;stroke-miterlimit:4;stroke-opacity:1;stroke-dasharray:none"
       id="rect3887"
       width="940"
       height="42"
       x="10"
       y="728.36218" />
    <text
       xml:space="preserve"
       style="font-size:24px;font-style:normal;font-variant:normal;font-weight:normal;font-stretch:normal;line-height:125%;letter-spacing:0px;word-spacing:0px;fill:#000000;fill-opacity:1;stroke:none;font-family:helvetica;-inkscape-font-specification:helvetica"
       x="30"
       y="271.08093"
       id="text3889"
       sodipodi:linespacing="125%"><tspan
         sodipodi:role="line"
         id="tspan3891"
         x="30"
         y="271.08093">Introduction</tspan></text>
    <text
       xml:space="preserve"
       style="font-size:24px;font-style:normal;font-variant:normal;font-weight:normal;font-stretch:normal;line-height:125%;letter-spacing:0px;word-spacing:0px;fill:#000000;fill-opacity:1;stroke:none;font-family:Sans;-inkscape-font-specification:Sans"
       x="349"
       y="266.3114"
       id="text3893"
       sodipodi:linespacing="125%"><tspan
         sodipodi:role="line"
         id="tspan3895"
         x="349"
         y="266.3114">Upcoming Events</tspan></text>
    <text
       xml:space="preserve"
       style="font-size:24px;font-style:normal;font-variant:normal;font-weight:normal;font-stretch:normal;line-height:125%;letter-spacing:0px;word-spacing:0px;fill:#000000;fill-opacity:1;stroke:none;font-family:Sans;-inkscape-font-specification:Sans"
       x="670"
       y="271.06921"
       id="text3897"
       sodipodi:linespacing="125%"><tspan
         sodipodi:role="line"
         id="tspan3899"
         x="670"
         y="271.06921">Get involved</tspan></text>
    <text
       xml:space="preserve"
       style="font-size:24px;font-style:normal;font-variant:normal;font-weight:normal;font-stretch:normal;text-align:center;line-height:150%;letter-spacing:0px;word-spacing:0px;text-anchor:middle;fill:#000000;fill-opacity:1;stroke:none;font-family:sans;-inkscape-font-specification:sans"
       x="480"
       y="89.362183"
       id="text3917"
       sodipodi:linespacing="150%"><tspan
         sodipodi:role="line"
         id="tspan3919"
         x="480"
         y="89.362183">American Society of Mechanical Engineers</tspan><tspan
         sodipodi:role="line"
         x="480"
         y="125.36218"
         id="tspan3921">Brigham Young University Student Chapter</tspan></text>
    <text
       xml:space="preserve"
       style="font-size:18px;font-style:normal;font-variant:normal;font-weight:normal;font-stretch:normal;text-align:center;line-height:125%;letter-spacing:0px;word-spacing:0px;text-anchor:middle;fill:#000000;fill-opacity:1;stroke:none;font-family:Sans;-inkscape-font-specification:Sans"
       x="44"
       y="165"
       id="text3923"
       sodipodi:linespacing="125%"
       transform="translate(0,28.362183)"><tspan
         sodipodi:role="line"
         id="tspan3925"
         x="44"
         y="165" /></text>
    <text
       xml:space="preserve"
       style="font-size:18px;font-style:normal;font-variant:normal;font-weight:normal;font-stretch:normal;text-align:center;line-height:125%;letter-spacing:0px;word-spacing:0px;text-anchor:middle;fill:#000000;fill-opacity:1;stroke:none;font-family:sans;-inkscape-font-specification:sans"
       x="27"
       y="180"
       id="text3927"
       sodipodi:linespacing="125%"
       transform="translate(0,28.362183)"><tspan
         sodipodi:role="line"
         id="tspan3929"
         x="27"
         y="180" /></text>
    <text
       xml:space="preserve"
       style="font-size:18px;font-style:normal;font-variant:normal;font-weight:normal;font-stretch:normal;text-align:start;line-height:125%;letter-spacing:0.80000000000000004px;word-spacing:36.90999161px;text-anchor:start;fill:#000000;fill-opacity:1;stroke:none;font-family:sans;-inkscape-font-specification:sans"
       x="27.637695"
       y="203.36218"
       id="text3931"
       sodipodi:linespacing="125%"><tspan
         sodipodi:role="line"
         id="tspan3933"
         x="27.637695"
         y="203.36218">HOME CALENDAR PROJECTS GALLERY GETINVOLVED ABOUT CONTACT</tspan></text>
    <rect
       style="fill:none;stroke:#000000;stroke-width:0.99999994;stroke-linecap:round;stroke-linejoin:round;stroke-miterlimit:4;stroke-opacity:1;stroke-dasharray:none"
       id="rect3935"
       width="272"
       height="181"
       x="24"
       y="293.86218" />
    <rect
       style="fill:none;stroke:#000000;stroke-width:0.99999994;stroke-linecap:round;stroke-linejoin:round;stroke-miterlimit:4;stroke-opacity:1;stroke-dasharray:none"
       id="rect3937"
       width="272"
       height="181"
       x="664"
       y="293.86218" />
    <rect
       style="fill:none;stroke:#000000;stroke-width:1;stroke-linecap:round;stroke-linejoin:round;stroke-miterlimit:4;stroke-opacity:1;stroke-dasharray:none"
       id="rect3939"
       width="273"
       height="77"
       x="343"
       y="265"
       transform="translate(0,28.362183)" />
    <rect
       style="fill:none;stroke:#000000;stroke-width:1;stroke-linecap:round;stroke-linejoin:round;stroke-miterlimit:4;stroke-opacity:1;stroke-dasharray:none"
       id="rect3939-2"
       width="273"
       height="77"
       x="342.5"
       y="382.86218" />
    <rect
       style="fill:none;stroke:#000000;stroke-width:1;stroke-linecap:round;stroke-linejoin:round;stroke-miterlimit:4;stroke-opacity:1;stroke-dasharray:none"
       id="rect3939-1"
       width="273"
       height="77"
       x="342.5"
       y="471.86218" />
    <rect
       style="fill:none;stroke:#000000;stroke-width:1;stroke-linecap:round;stroke-linejoin:round;stroke-miterlimit:4;stroke-opacity:1;stroke-dasharray:none"
       id="rect3939-7"
       width="273"
       height="77"
       x="342.5"
       y="559.86218" />
    <flowRoot
       xml:space="preserve"
       id="flowRoot3973"
       style="fill:black;stroke:none;stroke-opacity:1;stroke-width:1px;stroke-linejoin:miter;stroke-linecap:butt;fill-opacity:1;font-family:sans;font-style:normal;font-weight:normal;font-size:14px;line-height:125%;letter-spacing:0px;word-spacing:0px;-inkscape-font-specification:sans;font-stretch:normal;font-variant:normal;text-anchor:middle;text-align:center"><flowRegion
         id="flowRegion3975"><rect
           id="rect3977"
           width="266"
           height="159"
           x="25"
           y="473"
           style="font-size:14px" /></flowRegion><flowPara
         id="flowPara3979"></flowPara></flowRoot>    <flowRoot
       xml:space="preserve"
       id="flowRoot3981"
       style="font-size:16px;font-style:normal;font-variant:normal;font-weight:normal;font-stretch:normal;text-align:start;line-height:125%;letter-spacing:0px;word-spacing:0px;text-anchor:start;fill:#000000;fill-opacity:1;stroke:none;font-family:sans;-inkscape-font-specification:sans"
       transform="translate(-1.4765625,23.362183)"><flowRegion
         id="flowRegion3983"><rect
           id="rect3985"
           width="268"
           height="167"
           x="26"
           y="471"
           style="font-size:16px;text-align:start;text-anchor:start" /></flowRegion><flowPara
         id="flowPara3987"
         style="line-height:150%">This is the text that introduces what ASME is all about, what we do, and the kinds of activities and stuff we have. It basically explains why we're so awesome, and why you should get involved with us and stuff.</flowPara></flowRoot>    <text
       xml:space="preserve"
       style="font-size:24px;font-style:normal;font-variant:normal;font-weight:normal;font-stretch:normal;text-align:center;line-height:125%;letter-spacing:0px;word-spacing:0px;text-anchor:middle;fill:#000000;fill-opacity:1;stroke:none;font-family:sans;-inkscape-font-specification:sans"
       x="212"
       y="687.10437"
       id="text3989"
       sodipodi:linespacing="125%"><tspan
         sodipodi:role="line"
         id="tspan3991"
         x="212"
         y="687.10437"
         style="font-size:22px;font-style:italic">Learn more &gt;&gt;</tspan></text>
    <flowRoot
       transform="translate(637.45312,22.926614)"
       xml:space="preserve"
       id="flowRoot3981-3"
       style="font-size:16px;font-style:normal;font-variant:normal;font-weight:normal;font-stretch:normal;text-align:start;line-height:125%;letter-spacing:0px;word-spacing:0px;text-anchor:start;fill:#000000;fill-opacity:1;stroke:none;font-family:sans;-inkscape-font-specification:sans"><flowRegion
         id="flowRegion3983-3"><rect
           id="rect3985-6"
           width="273"
           height="165"
           x="26"
           y="471"
           style="font-size:16px;text-align:start;text-anchor:start" /></flowRegion><flowPara
         id="flowPara3987-9"
         style="line-height:150%">Here we explain what you can do to get involved. You can get involved with a project, have a leadership position, or just kind of come to events and get some free pizza. Whatever you want to do.</flowPara></flowRoot>    <text
       xml:space="preserve"
       style="font-size:24px;font-style:normal;font-variant:normal;font-weight:normal;font-stretch:normal;text-align:center;line-height:125%;letter-spacing:0px;word-spacing:0px;text-anchor:middle;fill:#000000;fill-opacity:1;stroke:none;font-family:sans;-inkscape-font-specification:sans"
       x="850.54297"
       y="687.09363"
       id="text3989-3"
       sodipodi:linespacing="125%"><tspan
         sodipodi:role="line"
         id="tspan3991-1"
         x="850.54297"
         y="687.09363"
         style="font-size:22px;font-style:italic">Get Involved &gt;&gt;</tspan></text>
    <text
       xml:space="preserve"
       style="font-size:24px;font-style:normal;font-variant:normal;font-weight:normal;font-stretch:normal;text-align:center;line-height:125%;letter-spacing:0px;word-spacing:0px;text-anchor:middle;fill:#000000;fill-opacity:1;stroke:none;font-family:sans;-inkscape-font-specification:sans"
       x="545"
       y="687.09363"
       id="text4026"
       sodipodi:linespacing="125%"><tspan
         sodipodi:role="line"
         id="tspan4028"
         x="545"
         y="687.09363"
         style="font-size:22px;font-style:italic">Calendar &gt;&gt;</tspan></text>
    <g
       transform="matrix(1.25,0,0,-1.25,54.931875,138.03918)"
       inkscape:label="ink_ext_XXXXXX"
       id="g4546">
      <g
         transform="scale(0.1,0.1)"
         id="g4548">
        <path
           id="path4550"
           style="fill:#1f4fa2;fill-opacity:1;fill-rule:nonzero;stroke:none"
           d="m 547.09,405.605 c 0,27.227 -28.387,28.243 -61.512,34.375 l 0,5.79 106.297,0 76.355,-108.817 0.754,0 72.664,108.817 45.5,0 0,-243.465 -32.722,0 0,225.422 -0.754,0 -76.797,-124.133 -14.855,-19.121 -94.598,143.254 -0.762,0 0,-225.422 -19.57,0 0,203.3"
           inkscape:connector-curvature="0" />
        <path
           id="path4552"
           style="fill:#1f4fa2;fill-opacity:1;fill-rule:nonzero;stroke:none"
           d="m 386.379,333.398 c -18.125,13.282 -31.809,28.536 -31.809,53.106 0,28.203 18.528,46.242 45.782,46.242 26.476,0 50.695,-12.48 62.433,-18.969 l 0,32.387 c -10.976,2.77 -31.398,7.391 -55.996,7.391 -50.332,0 -82.512,-27.735 -82.512,-78.145 0,-10.801 1.633,-20.176 4.387,-28.555 20.731,-3.71 40.098,-8.23 57.715,-13.457 l 0,0"
           inkscape:connector-curvature="0" />
        <path
           id="path4554"
           style="fill:#1f4fa2;fill-opacity:1;fill-rule:nonzero;stroke:none"
           d="M 177.402,340.625 C 111.141,340.625 49.875,321.289 0,308.691 c 6.05469,-4.011 12.0977,3.868 18.1523,-0.175 42.7657,9.609 93.2657,15.168 147.3477,15.168 154.273,0 282.996,-41.75 282.996,-97.375 0,-29.024 -37.726,-58.516 -92.18,-76.914 75.266,19.277 124.153,50.339 124.153,85.41 0,58.457 -135.684,105.82 -303.067,105.82 l 0,0"
           inkscape:connector-curvature="0" />
        <path
           id="path4556"
           style="fill:#1f4fa2;fill-opacity:1;fill-rule:nonzero;stroke:none"
           d="m 961.867,217.5 -39.719,0 c -26.835,0 -30.136,0 -30.136,20.859 l 0,75.645 64.648,0 0,18.371 -64.648,0 0,75.457 c 0,19.434 1.445,23.75 22.441,23.75 l 38.555,0 c 30.527,0 30.168,-11.16 33.859,-29.863 l 11.395,0 -1.836,43.886 -193.438,0 0,-6.113 C 834.973,435.176 860,428.34 860,407.832 l 0,-204.363 142.64,0 2.61,48.933 c 0,0 -18.383,-34.902 -43.383,-34.902 l 0,0"
           inkscape:connector-curvature="0" />
        <path
           id="path4558"
           style="fill:#1f4fa2;fill-opacity:1;fill-rule:nonzero;stroke:none"
           d="m 72.082,202.961 23.6211,0 90.4489,213.055 81.797,-212.93 c 24.641,0.664 27.344,-12.07 38.809,-14.16 l -102.988,263.027 -92.352,0 0,-5.762 c 18.738,-4.062 56.727,-7.128 56.727,-15.945 0,-5.41 -2.989,-12.199 -5.618,-18.305 l -90.445,-208.98 0,0"
           inkscape:connector-curvature="0" />
        <path
           id="path4560"
           style="fill:#231f20;fill-opacity:1;fill-rule:nonzero;stroke:none"
           d="m 65.3672,89.9609 c 0.7187,-1.4648 1.4336,-3.5937 1.5664,-4.6679 l 0.125,-0.8399 -0.9727,-1.1836 C 64,80.6836 60.0898,77.1484 52.8516,76.8633 50.2461,76.8164 47.375,77.2656 45.0273,78.4961 l -1.4335,0.7812 2.414,4.0547 0.9727,-0.5586 c 1.9609,-1.1328 3.914,-1.7968 6.8476,-1.7968 2.9336,0 5.9961,1.7968 7.043,2.9101 l 0.7773,0.8477 -0.1914,0.8437 c -0.2617,1.1211 -0.7187,2.4688 -1.4375,3.6485 -0.6484,1.125 -1.4297,2.1992 -2.6054,3.664 l -1.6289,1.9532 c -1.3047,1.6406 -2.6055,3.3789 -3.2618,4.6679 -0.7148,1.4653 -1.1054,2.5393 -1.3007,3.5473 l -0.1993,0.945 0.6563,0.742 c 2.0156,2.305 5.4726,4.766 9.3203,5.84 2.9297,0.84 6.3242,1.348 10.1016,1.074 l 1.4375,-0.117 -1.4375,-4.16 -2.0821,0.117 c -1.375,0.051 -2.8047,0.105 -5.2148,-0.293 -2.6094,-0.449 -4.957,-1.621 -6.3906,-2.859 l -0.8477,-0.735 0.1953,-0.722 c 0.1953,-0.899 0.7813,-2.246 1.5625,-3.3793 0.7852,-1.1211 1.5664,-1.9609 2.6758,-3.3672 l 1.6289,-2.0234 c 1.1758,-1.5234 2.2149,-2.9766 2.7383,-4.1602"
           inkscape:connector-curvature="0" />
        <path
           id="path4562"
           style="fill:none;stroke:#231f20;stroke-width:1.51499999;stroke-linecap:butt;stroke-linejoin:miter;stroke-miterlimit:4;stroke-opacity:1;stroke-dasharray:none"
           d="m 65.3672,89.9609 c 0.7187,-1.4648 1.4336,-3.5937 1.5664,-4.6679 l 0.125,-0.8399 -0.9727,-1.1836 C 64,80.6836 60.0898,77.1484 52.8516,76.8633 50.2461,76.8164 47.375,77.2656 45.0273,78.4961 l -1.4335,0.7812 2.414,4.0547 0.9727,-0.5586 c 1.9609,-1.1328 3.914,-1.7968 6.8476,-1.7968 2.9336,0 5.9961,1.7968 7.043,2.9101 l 0.7773,0.8477 -0.1914,0.8437 c -0.2617,1.1211 -0.7187,2.4688 -1.4375,3.6485 -0.6484,1.125 -1.4297,2.1992 -2.6054,3.664 l -1.6289,1.9532 c -1.3047,1.6406 -2.6055,3.3789 -3.2618,4.6679 -0.7148,1.4653 -1.1054,2.5393 -1.3007,3.5473 l -0.1993,0.945 0.6563,0.742 c 2.0156,2.305 5.4726,4.766 9.3203,5.84 2.9297,0.84 6.3242,1.348 10.1016,1.074 l 1.4375,-0.117 -1.4375,-4.16 -2.0821,0.117 c -1.375,0.051 -2.8047,0.105 -5.2148,-0.293 -2.6094,-0.449 -4.957,-1.621 -6.3906,-2.859 l -0.8477,-0.735 0.1953,-0.722 c 0.1953,-0.899 0.7813,-2.246 1.5625,-3.3793 0.7852,-1.1211 1.5664,-1.9609 2.6758,-3.3672 l 1.6289,-2.0234 c 1.1758,-1.5234 2.2149,-2.9766 2.7383,-4.1602 z"
           inkscape:connector-curvature="0" />
        <path
           id="path4564"
           style="fill:#231f20;fill-opacity:1;fill-rule:nonzero;stroke:none"
           d="m 99.7852,81.5352 13.2378,0 -1.175,-3.8204 -18.0589,0 9.5859,30.8982 0,2.813 18.25,0 -1.172,-3.653 -12.582,0 -3.457,-10.9566 12.645,0 -1.168,-3.6523 -12.516,0 -3.5898,-11.6289"
           inkscape:connector-curvature="0" />
        <path
           id="path4566"
           style="fill:none;stroke:#231f20;stroke-width:1.51499999;stroke-linecap:butt;stroke-linejoin:miter;stroke-miterlimit:4;stroke-opacity:1;stroke-dasharray:none"
           d="m 99.7852,81.5352 13.2378,0 -1.175,-3.8204 -18.0589,0 9.5859,30.8982 0,2.813 18.25,0 -1.172,-3.653 -12.582,0 -3.457,-10.9566 12.645,0 -1.168,-3.6523 -12.516,0 -3.5898,-11.6289 z"
           inkscape:connector-curvature="0" />
        <path
           id="path4568"
           style="fill:#231f20;fill-opacity:1;fill-rule:nonzero;stroke:none"
           d="m 151.938,77.7148 -5.801,0 9.254,29.7852 -9.645,0 1.305,3.926 23.793,0 -1.301,-3.926 -9.328,0 -8.277,-26.9805 0,-2.8047"
           inkscape:connector-curvature="0" />
        <path
           id="path4570"
           style="fill:none;stroke:#231f20;stroke-width:1.51499999;stroke-linecap:butt;stroke-linejoin:miter;stroke-miterlimit:4;stroke-opacity:1;stroke-dasharray:none"
           d="m 151.938,77.7148 -5.801,0 9.254,29.7852 -9.645,0 1.305,3.926 23.793,0 -1.301,-3.926 -9.328,0 -8.277,-26.9805 0,-2.8047 z"
           inkscape:connector-curvature="0" />
        <path
           id="path4572"
           style="fill:#231f20;fill-opacity:1;fill-rule:nonzero;stroke:none"
           d="m 197.566,77.7148 -5.8,0 9.257,29.7852 -9.644,0 1.301,3.926 23.793,0 -1.301,-3.926 -9.324,0 -8.282,-26.9805 0,-2.8047"
           inkscape:connector-curvature="0" />
        <path
           id="path4574"
           style="fill:none;stroke:#231f20;stroke-width:1.51499999;stroke-linecap:butt;stroke-linejoin:miter;stroke-miterlimit:4;stroke-opacity:1;stroke-dasharray:none"
           d="m 197.566,77.7148 -5.8,0 9.257,29.7852 -9.644,0 1.301,3.926 23.793,0 -1.301,-3.926 -9.324,0 -8.282,-26.9805 0,-2.8047 z"
           inkscape:connector-curvature="0" />
        <path
           id="path4576"
           style="fill:#231f20;fill-opacity:1;fill-rule:nonzero;stroke:none"
           d="m 248.879,111.426 -9.652,-30.9065 0,-2.8047 -5.805,0 9.586,30.8982 0,2.813 5.871,0"
           inkscape:connector-curvature="0" />
        <path
           id="path4578"
           style="fill:none;stroke:#231f20;stroke-width:1.51499999;stroke-linecap:butt;stroke-linejoin:miter;stroke-miterlimit:4;stroke-opacity:1;stroke-dasharray:none"
           d="m 248.879,111.426 -9.652,-30.9065 0,-2.8047 -5.805,0 9.586,30.8982 0,2.813 5.871,0 z"
           inkscape:connector-curvature="0" />
        <path
           id="path4580"
           style="fill:#231f20;fill-opacity:1;fill-rule:nonzero;stroke:none"
           d="m 294.375,77.7148 -0.977,1.1133 c -1.5,1.75 -3.386,4.9492 -4.886,8.711 -1.891,4.8437 -2.934,10.957 -2.934,15.7419 l 0,3.086 -7.957,-25.8475 0,-2.8047 -5.539,0 10.496,33.7112 7.235,0 0,-2.246 c 0,-4.778 0.199,-10.3909 1.632,-15.7347 1.172,-4.5 2.93,-7.918 3.91,-9.4414 l 0.52,-0.7812 7.828,25.3903 0,2.813 5.668,0 -10.625,-33.7112 -4.371,0"
           inkscape:connector-curvature="0" />
        <path
           id="path4582"
           style="fill:none;stroke:#231f20;stroke-width:1.51499999;stroke-linecap:butt;stroke-linejoin:miter;stroke-miterlimit:4;stroke-opacity:1;stroke-dasharray:none"
           d="m 294.375,77.7148 -0.977,1.1133 c -1.5,1.75 -3.386,4.9492 -4.886,8.711 -1.891,4.8437 -2.934,10.957 -2.934,15.7419 l 0,3.086 -7.957,-25.8475 0,-2.8047 -5.539,0 10.496,33.7112 7.235,0 0,-2.246 c 0,-4.778 0.199,-10.3909 1.632,-15.7347 1.172,-4.5 2.93,-7.918 3.91,-9.4414 l 0.52,-0.7812 7.828,25.3903 0,2.813 5.668,0 -10.625,-33.7112 -4.371,0 z"
           inkscape:connector-curvature="0" />
        <path
           id="path4584"
           style="fill:#231f20;fill-opacity:1;fill-rule:nonzero;stroke:none"
           d="m 359.238,111.711 4.106,-0.285 -1.496,-4.219 -3.719,0.293 c -10.297,0.723 -16.035,-3.652 -18.117,-11.25 -1.633,-5.8984 0.972,-11.2305 3.129,-13.9258 l 0.914,-1.1328 0.843,0.1758 c 2.082,0.3906 4.567,1.4531 7.172,3.0859 2.996,1.9141 4.301,4.2774 4.758,5.625 l 0.457,1.2305 -8.148,0 1.172,3.5352 12.839,0 -0.976,-3.3594 c -1.172,-4.2188 -3.254,-7.3047 -6.52,-9.5586 -4.234,-2.9805 -9.777,-4.6133 -12.058,-5 l -1.758,-0.3438 -1.305,1.4063 c -4.433,4.7851 -7.234,11.2383 -5.867,17.9883 2.215,10.6714 12.516,16.5234 24.574,15.7344"
           inkscape:connector-curvature="0" />
        <path
           id="path4586"
           style="fill:none;stroke:#231f20;stroke-width:1.51499999;stroke-linecap:butt;stroke-linejoin:miter;stroke-miterlimit:4;stroke-opacity:1;stroke-dasharray:none"
           d="m 359.238,111.711 4.106,-0.285 -1.496,-4.219 -3.719,0.293 c -10.297,0.723 -16.035,-3.652 -18.117,-11.25 -1.633,-5.8984 0.972,-11.2305 3.129,-13.9258 l 0.914,-1.1328 0.843,0.1758 c 2.082,0.3906 4.567,1.4531 7.172,3.0859 2.996,1.9141 4.301,4.2774 4.758,5.625 l 0.457,1.2305 -8.148,0 1.172,3.5352 12.839,0 -0.976,-3.3594 c -1.172,-4.2188 -3.254,-7.3047 -6.52,-9.5586 -4.234,-2.9805 -9.777,-4.6133 -12.058,-5 l -1.758,-0.3438 -1.305,1.4063 c -4.433,4.7851 -7.234,11.2383 -5.867,17.9883 2.215,10.6714 12.516,16.5234 24.574,15.7344 z"
           inkscape:connector-curvature="0" />
        <path
           id="path4588"
           style="fill:#231f20;fill-opacity:1;fill-rule:nonzero;stroke:none"
           d="m 429.973,77.7148 -5.801,0 9.25,29.7852 -9.645,0 1.301,3.926 23.801,0 -1.305,-3.926 -9.328,0 -8.273,-26.9805 0,-2.8047"
           inkscape:connector-curvature="0" />
        <path
           id="path4590"
           style="fill:none;stroke:#231f20;stroke-width:1.51499999;stroke-linecap:butt;stroke-linejoin:miter;stroke-miterlimit:4;stroke-opacity:1;stroke-dasharray:none"
           d="m 429.973,77.7148 -5.801,0 9.25,29.7852 -9.645,0 1.301,3.926 23.801,0 -1.305,-3.926 -9.328,0 -8.273,-26.9805 0,-2.8047 z"
           inkscape:connector-curvature="0" />
        <path
           id="path4592"
           style="fill:#231f20;fill-opacity:1;fill-rule:nonzero;stroke:none"
           d="m 475.277,93.1641 -3.91,-12.6446 0,-2.8047 -5.676,0 9.586,30.8982 0,2.813 5.672,0 -4.5,-14.4924 14.864,0 3.652,11.6794 0,2.813 5.672,0 -9.582,-30.9065 0,-2.8047 -5.672,0 4.824,15.4493 -14.93,0"
           inkscape:connector-curvature="0" />
        <path
           id="path4594"
           style="fill:none;stroke:#231f20;stroke-width:1.51499999;stroke-linecap:butt;stroke-linejoin:miter;stroke-miterlimit:4;stroke-opacity:1;stroke-dasharray:none"
           d="m 475.277,93.1641 -3.91,-12.6446 0,-2.8047 -5.676,0 9.586,30.8982 0,2.813 5.672,0 -4.5,-14.4924 14.864,0 3.652,11.6794 0,2.813 5.672,0 -9.582,-30.9065 0,-2.8047 -5.672,0 4.824,15.4493 -14.93,0 z"
           inkscape:connector-curvature="0" />
        <path
           id="path4596"
           style="fill:#231f20;fill-opacity:1;fill-rule:nonzero;stroke:none"
           d="m 529.707,81.5352 13.231,0 -1.172,-3.8204 -18.055,0 9.582,30.8982 0,2.813 18.262,0 -1.172,-3.653 -12.59,0 -3.457,-10.9566 12.644,0 -1.171,-3.6523 -12.516,0 -3.586,-11.6289"
           inkscape:connector-curvature="0" />
        <path
           id="path4598"
           style="fill:none;stroke:#231f20;stroke-width:1.51499999;stroke-linecap:butt;stroke-linejoin:miter;stroke-miterlimit:4;stroke-opacity:1;stroke-dasharray:none"
           d="m 529.707,81.5352 13.231,0 -1.172,-3.8204 -18.055,0 9.582,30.8982 0,2.813 18.262,0 -1.172,-3.653 -12.59,0 -3.457,-10.9566 12.644,0 -1.171,-3.6523 -12.516,0 -3.586,-11.6289 z"
           inkscape:connector-curvature="0" />
        <path
           id="path4600"
           style="fill:#231f20;fill-opacity:1;fill-rule:nonzero;stroke:none"
           d="m 615.559,89.9609 c 0.718,-1.4648 1.445,-3.5937 1.57,-4.6679 l 0.129,-0.8399 -0.981,-1.1836 c -2.089,-2.5859 -5.992,-6.1211 -13.23,-6.4062 -2.609,-0.0469 -5.481,0.4023 -7.824,1.6328 l -1.434,0.7812 2.414,4.0547 0.977,-0.5586 c 1.953,-1.1328 3.914,-1.7968 6.843,-1.7968 2.942,0 6.004,1.7968 7.04,2.9101 l 0.785,0.8477 -0.2,0.8437 c -0.253,1.1211 -0.718,2.4688 -1.425,3.6485 -0.664,1.125 -1.446,2.1992 -2.618,3.664 l -1.621,1.9532 c -1.304,1.6406 -2.613,3.3789 -3.261,4.6679 -0.719,1.4653 -1.114,2.5393 -1.305,3.5473 l -0.195,0.945 0.652,0.742 c 2.02,2.305 5.477,4.766 9.328,5.84 2.93,0.84 6.317,1.348 10.098,1.074 l 1.433,-0.117 -1.433,-4.16 -2.09,0.117 c -1.367,0.051 -2.793,0.105 -5.215,-0.293 -2.601,-0.449 -4.953,-1.621 -6.391,-2.859 l -0.839,-0.735 0.199,-0.722 c 0.195,-0.899 0.781,-2.246 1.558,-3.3793 0.786,-1.1211 1.567,-1.9609 2.68,-3.3672 l 1.621,-2.0234 c 1.172,-1.5234 2.227,-2.9766 2.735,-4.1602"
           inkscape:connector-curvature="0" />
        <path
           id="path4602"
           style="fill:none;stroke:#231f20;stroke-width:1.51499999;stroke-linecap:butt;stroke-linejoin:miter;stroke-miterlimit:4;stroke-opacity:1;stroke-dasharray:none"
           d="m 615.559,89.9609 c 0.718,-1.4648 1.445,-3.5937 1.57,-4.6679 l 0.129,-0.8399 -0.981,-1.1836 c -2.089,-2.5859 -5.992,-6.1211 -13.23,-6.4062 -2.609,-0.0469 -5.481,0.4023 -7.824,1.6328 l -1.434,0.7812 2.414,4.0547 0.977,-0.5586 c 1.953,-1.1328 3.914,-1.7968 6.843,-1.7968 2.942,0 6.004,1.7968 7.04,2.9101 l 0.785,0.8477 -0.2,0.8437 c -0.253,1.1211 -0.718,2.4688 -1.425,3.6485 -0.664,1.125 -1.446,2.1992 -2.618,3.664 l -1.621,1.9532 c -1.304,1.6406 -2.613,3.3789 -3.261,4.6679 -0.719,1.4653 -1.114,2.5393 -1.305,3.5473 l -0.195,0.945 0.652,0.742 c 2.02,2.305 5.477,4.766 9.328,5.84 2.93,0.84 6.317,1.348 10.098,1.074 l 1.433,-0.117 -1.433,-4.16 -2.09,0.117 c -1.367,0.051 -2.793,0.105 -5.215,-0.293 -2.601,-0.449 -4.953,-1.621 -6.391,-2.859 l -0.839,-0.735 0.199,-0.722 c 0.195,-0.899 0.781,-2.246 1.558,-3.3793 0.786,-1.1211 1.567,-1.9609 2.68,-3.3672 l 1.621,-2.0234 c 1.172,-1.5234 2.227,-2.9766 2.735,-4.1602 z"
           inkscape:connector-curvature="0" />
        <path
           id="path4604"
           style="fill:#231f20;fill-opacity:1;fill-rule:nonzero;stroke:none"
           d="m 653.895,77.7148 -5.797,0 9.254,29.7852 -9.645,0 1.297,3.926 23.801,0 -1.309,-3.926 -9.316,0 -8.285,-26.9805 0,-2.8047"
           inkscape:connector-curvature="0" />
        <path
           id="path4606"
           style="fill:none;stroke:#231f20;stroke-width:1.51499999;stroke-linecap:butt;stroke-linejoin:miter;stroke-miterlimit:4;stroke-opacity:1;stroke-dasharray:none"
           d="m 653.895,77.7148 -5.797,0 9.254,29.7852 -9.645,0 1.297,3.926 23.801,0 -1.309,-3.926 -9.316,0 -8.285,-26.9805 0,-2.8047 z"
           inkscape:connector-curvature="0" />
        <path
           id="path4608"
           style="fill:#231f20;fill-opacity:1;fill-rule:nonzero;stroke:none"
           d="m 706.242,86.4258 -12.719,0 -6.382,-9.2774 -4.758,1.1211 23.859,33.1565 6.649,0 -0.657,-2.696 c -1.171,-5.117 -2.089,-11.6284 -1.629,-18.9448 0.325,-5.2149 1.106,-8.5352 1.629,-10.5079 l 0.332,-1.1132 -4.761,-1.0157 -0.325,1.0157 c -0.195,0.7812 -0.398,1.6797 -0.593,2.8125 -0.199,1.3476 -0.453,3.25 -0.508,4.3164 l -0.137,1.1328 z m 1.434,20.5082 -11.613,-16.8559 9.785,0 0,1.1133 c 0,1.6406 0,2.3633 0.199,5.5078 0.195,2.6485 0.641,6.0158 1.113,8.1058 l 0.516,2.129"
           inkscape:connector-curvature="0" />
        <path
           id="path4610"
           style="fill:none;stroke:#231f20;stroke-width:1.51499999;stroke-linecap:butt;stroke-linejoin:miter;stroke-miterlimit:4;stroke-opacity:1;stroke-dasharray:none"
           d="m 706.242,86.4258 -12.719,0 -6.382,-9.2774 -4.758,1.1211 23.859,33.1565 6.649,0 -0.657,-2.696 c -1.171,-5.117 -2.089,-11.6284 -1.629,-18.9448 0.325,-5.2149 1.106,-8.5352 1.629,-10.5079 l 0.332,-1.1132 -4.761,-1.0157 -0.325,1.0157 c -0.195,0.7812 -0.398,1.6797 -0.593,2.8125 -0.199,1.3476 -0.453,3.25 -0.508,4.3164 l -0.137,1.1328 z m 1.434,20.5082 -11.613,-16.8559 9.785,0 0,1.1133 c 0,1.6406 0,2.3633 0.199,5.5078 0.195,2.6485 0.641,6.0158 1.113,8.1058 l 0.516,2.129 z"
           inkscape:connector-curvature="0" />
        <path
           id="path4612"
           style="fill:#231f20;fill-opacity:1;fill-rule:nonzero;stroke:none"
           d="m 762.109,77.7148 -0.976,1.1133 c -1.504,1.75 -3.399,4.9492 -4.891,8.711 -1.894,4.8437 -2.933,10.957 -2.933,15.7419 l 0,3.086 -7.957,-25.8475 0,-2.8047 -5.539,0 10.492,33.7112 7.234,0 0,-2.246 c 0,-4.778 0.195,-10.3909 1.633,-15.7347 1.172,-4.5 2.937,-7.918 3.914,-9.4414 l 0.516,-0.7812 7.824,25.3903 0,2.813 5.672,0 -10.625,-33.7112 -4.364,0"
           inkscape:connector-curvature="0" />
        <path
           id="path4614"
           style="fill:none;stroke:#231f20;stroke-width:1.51499999;stroke-linecap:butt;stroke-linejoin:miter;stroke-miterlimit:4;stroke-opacity:1;stroke-dasharray:none"
           d="m 762.109,77.7148 -0.976,1.1133 c -1.504,1.75 -3.399,4.9492 -4.891,8.711 -1.894,4.8437 -2.933,10.957 -2.933,15.7419 l 0,3.086 -7.957,-25.8475 0,-2.8047 -5.539,0 10.492,33.7112 7.234,0 0,-2.246 c 0,-4.778 0.195,-10.3909 1.633,-15.7347 1.172,-4.5 2.937,-7.918 3.914,-9.4414 l 0.516,-0.7812 7.824,25.3903 0,2.813 5.672,0 -10.625,-33.7112 -4.364,0 z"
           inkscape:connector-curvature="0" />
        <path
           id="path4616"
           style="fill:#231f20;fill-opacity:1;fill-rule:nonzero;stroke:none"
           d="m 810.344,77.4219 -10.293,-0.1563 9.648,31.3474 0,2.813 20.723,0 1.305,-2.696 c 2.609,-5.39 2.609,-12.5855 0.265,-17.812 -4.375,-9.5508 -14.148,-13.3789 -21.648,-13.4961 z m 4.043,30.3511 -8.078,-26.4058 2.734,0 c 5.871,0 13.039,1.9648 17.273,9.2695 3.457,5.9571 2.539,12.7033 0.981,15.8473 l -0.656,1.289 -12.254,0"
           inkscape:connector-curvature="0" />
        <path
           id="path4618"
           style="fill:none;stroke:#231f20;stroke-width:1.51499999;stroke-linecap:butt;stroke-linejoin:miter;stroke-miterlimit:4;stroke-opacity:1;stroke-dasharray:none"
           d="m 810.344,77.4219 -10.293,-0.1563 9.648,31.3474 0,2.813 20.723,0 1.305,-2.696 c 2.609,-5.39 2.609,-12.5855 0.265,-17.812 -4.375,-9.5508 -14.148,-13.3789 -21.648,-13.4961 z m 4.043,30.3511 -8.078,-26.4058 2.734,0 c 5.871,0 13.039,1.9648 17.273,9.2695 3.457,5.9571 2.539,12.7033 0.981,15.8473 l -0.656,1.289 -12.254,0 z"
           inkscape:connector-curvature="0" />
        <path
           id="path4620"
           style="fill:#231f20;fill-opacity:1;fill-rule:nonzero;stroke:none"
           d="m 877.684,86.4258 -12.711,0 -6.387,-9.2774 -4.758,1.1211 23.856,33.1565 6.652,0 -0.652,-2.696 c -1.172,-5.117 -2.082,-11.6284 -1.633,-18.9448 0.332,-5.2149 1.113,-8.5352 1.633,-10.5079 l 0.332,-1.1132 -4.766,-1.0157 -0.324,1.0157 c -0.196,0.7812 -0.391,1.6797 -0.586,2.8125 -0.195,1.3476 -0.457,3.25 -0.527,4.3164 l -0.129,1.1328 z m 1.437,20.5082 -11.601,-16.8559 9.777,0 0,1.1133 c 0,1.6406 0,2.3633 0.195,5.5078 0.192,2.6485 0.653,6.0158 1.11,8.1058 l 0.519,2.129"
           inkscape:connector-curvature="0" />
        <path
           id="path4622"
           style="fill:none;stroke:#231f20;stroke-width:1.51499999;stroke-linecap:butt;stroke-linejoin:miter;stroke-miterlimit:4;stroke-opacity:1;stroke-dasharray:none"
           d="m 877.684,86.4258 -12.711,0 -6.387,-9.2774 -4.758,1.1211 23.856,33.1565 6.652,0 -0.652,-2.696 c -1.172,-5.117 -2.082,-11.6284 -1.633,-18.9448 0.332,-5.2149 1.113,-8.5352 1.633,-10.5079 l 0.332,-1.1132 -4.766,-1.0157 -0.324,1.0157 c -0.196,0.7812 -0.391,1.6797 -0.586,2.8125 -0.195,1.3476 -0.457,3.25 -0.527,4.3164 l -0.129,1.1328 z m 1.437,20.5082 -11.601,-16.8559 9.777,0 0,1.1133 c 0,1.6406 0,2.3633 0.195,5.5078 0.192,2.6485 0.653,6.0158 1.11,8.1058 l 0.519,2.129 z"
           inkscape:connector-curvature="0" />
        <path
           id="path4624"
           style="fill:#231f20;fill-opacity:1;fill-rule:nonzero;stroke:none"
           d="m 925.73,89.7852 -0.332,1.1328 -5.269,0 -3.195,-10.3985 0,-2.8047 -5.672,0 9.578,30.8982 0,2.813 17.734,0 0.852,-1.68 c 1.492,-3.035 2.215,-7.195 0.32,-10.789 -1.953,-3.7109 -5.867,-5.6757 -8.476,-6.5234 l -1.172,-0.3906 0.711,-2.5313 c 0.332,-1.1797 1.632,-3.8281 2.621,-5.0586 1.23,-1.6328 3.25,-3.875 7.488,-3.4765 l 1.113,0.1093 -1.308,-3.9375 -2.082,-0.1171 c -3.914,-0.168 -7.371,2.0898 -9.645,5.4492 -1.504,2.2539 -2.551,4.7265 -3.266,7.3047 z m -0.332,17.9878 -4.168,-13.2027 1.895,0 c 4.883,0 8.145,1.2305 10.754,3.6524 2.476,2.3043 2.605,5.9573 1.629,8.4253 l -0.457,1.125 -9.653,0"
           inkscape:connector-curvature="0" />
        <path
           id="path4626"
           style="fill:none;stroke:#231f20;stroke-width:1.51499999;stroke-linecap:butt;stroke-linejoin:miter;stroke-miterlimit:4;stroke-opacity:1;stroke-dasharray:none"
           d="m 925.73,89.7852 -0.332,1.1328 -5.269,0 -3.195,-10.3985 0,-2.8047 -5.672,0 9.578,30.8982 0,2.813 17.734,0 0.852,-1.68 c 1.492,-3.035 2.215,-7.195 0.32,-10.789 -1.953,-3.7109 -5.867,-5.6757 -8.476,-6.5234 l -1.172,-0.3906 0.711,-2.5313 c 0.332,-1.1797 1.632,-3.8281 2.621,-5.0586 1.23,-1.6328 3.25,-3.875 7.488,-3.4765 l 1.113,0.1093 -1.308,-3.9375 -2.082,-0.1171 c -3.914,-0.168 -7.371,2.0898 -9.645,5.4492 -1.504,2.2539 -2.551,4.7265 -3.266,7.3047 z m -0.332,17.9878 -4.168,-13.2027 1.895,0 c 4.883,0 8.145,1.2305 10.754,3.6524 2.476,2.3043 2.605,5.9573 1.629,8.4253 l -0.457,1.125 -9.653,0 z"
           inkscape:connector-curvature="0" />
        <path
           id="path4628"
           style="fill:#231f20;fill-opacity:1;fill-rule:nonzero;stroke:none"
           d="m 977.227,77.4219 -10.293,-0.1563 9.648,31.3474 0,2.813 20.723,0 1.308,-2.696 c 2.607,-5.39 2.607,-12.5855 0.266,-17.812 -4.375,-9.5508 -14.152,-13.3789 -21.652,-13.4961 z m 4.043,30.3511 -8.079,-26.4058 2.739,0 c 5.867,0 13.035,1.9648 17.273,9.2695 3.457,5.9571 2.539,12.7033 0.977,15.8473 l -0.657,1.289 -12.253,0"
           inkscape:connector-curvature="0" />
        <path
           id="path4630"
           style="fill:none;stroke:#231f20;stroke-width:1.51499999;stroke-linecap:butt;stroke-linejoin:miter;stroke-miterlimit:4;stroke-opacity:1;stroke-dasharray:none"
           d="m 977.227,77.4219 -10.293,-0.1563 9.648,31.3474 0,2.813 20.723,0 1.308,-2.696 c 2.607,-5.39 2.607,-12.5855 0.266,-17.812 -4.375,-9.5508 -14.152,-13.3789 -21.652,-13.4961 z m 4.043,30.3511 -8.079,-26.4058 2.739,0 c 5.867,0 13.035,1.9648 17.273,9.2695 3.457,5.9571 2.539,12.7033 0.977,15.8473 l -0.657,1.289 -12.253,0 z"
           inkscape:connector-curvature="0" />
        <path
           id="path4632"
           style="fill:#1f4fa2;fill-opacity:1;fill-rule:nonzero;stroke:none"
           d="m 499.027,578.625 c -22.246,-11.883 -34.453,-32.461 -27.527,-45.547 6.941,-13.098 33.008,-14.082 55.25,-2.207 22.246,11.867 32.285,32.102 25.348,45.184 -6.93,13.09 -30.782,14.422 -53.071,2.57 l 0,0 z m 26.18,-47.492 c -20.437,-10.887 -46.344,-9.18 -52.703,2.789 -6.348,11.988 7.141,32.058 27.539,42.941 20.434,10.891 44.09,11.305 51.453,-2.57 6.363,-11.98 -5.879,-32.266 -26.289,-43.16 l 0,0"
           inkscape:connector-curvature="0" />
        <path
           id="path4634"
           style="fill:none;stroke:#1f4fa2;stroke-width:2.5;stroke-linecap:butt;stroke-linejoin:miter;stroke-miterlimit:4;stroke-opacity:1;stroke-dasharray:none"
           d="m 499.027,578.625 c -22.246,-11.883 -34.453,-32.461 -27.527,-45.547 6.941,-13.098 33.008,-14.082 55.25,-2.207 22.246,11.867 32.285,32.102 25.348,45.184 -6.93,13.09 -30.782,14.422 -53.071,2.57 l 0,0 z m 26.18,-47.492 c -20.437,-10.887 -46.344,-9.18 -52.703,2.789 -6.348,11.988 7.141,32.058 27.539,42.941 20.434,10.891 44.09,11.305 51.453,-2.57 6.363,-11.98 -5.879,-32.266 -26.289,-43.16 l 0,0 z"
           inkscape:connector-curvature="0" />
        <path
           id="path4636"
           style="fill:#1f4fa2;fill-opacity:1;fill-rule:nonzero;stroke:none"
           d="M 523.098,574.98 C 449.301,545.469 410.551,466.855 429.215,401.445 l 1.836,1.594 c -22.219,61.695 24.062,142.188 95.113,170.375 79.645,31.582 148.609,-7.711 171.328,-72.738 l -0.195,0.16 C 677.375,570.82 599.559,605.57 523.098,574.98 l 0,0"
           inkscape:connector-curvature="0" />
        <path
           id="path4638"
           style="fill:none;stroke:#1f4fa2;stroke-width:2;stroke-linecap:butt;stroke-linejoin:miter;stroke-miterlimit:4;stroke-opacity:1;stroke-dasharray:none"
           d="M 523.098,574.98 C 449.301,545.469 410.551,466.855 429.215,401.445 l 1.836,1.594 c -22.219,61.695 24.062,142.188 95.113,170.375 79.645,31.582 148.609,-7.711 171.328,-72.738 l -0.195,0.16 C 677.375,570.82 599.559,605.57 523.098,574.98 l 0,0 z"
           inkscape:connector-curvature="0" />
        <path
           id="path4640"
           style="fill:#1f4fa2;fill-opacity:1;fill-rule:nonzero;stroke:none"
           d="m 494.313,585.039 c -70.02,-37.242 -96.524,-124.394 -59.141,-194.68 37.351,-70.261 124.449,-97.039 194.469,-59.793 70.039,37.227 96.543,124.375 59.16,194.653 -37.367,70.281 -124.434,97.051 -194.488,59.82 l 0,0 z M 428.48,498.316 c 9.778,35.094 32.883,66.243 67.071,84.43 67.488,35.863 155.34,9.891 191.336,-57.808 36.011,-67.692 15.133,-152.809 -59.727,-192.946 -71.406,-38.75 -155.972,-7.871 -192.137,60.84 -14.148,26.926 -14.285,56.641 -10.664,85.059 0.891,6.906 2.258,13.73 4.121,20.425"
           inkscape:connector-curvature="0" />
        <path
           id="path4642"
           style="fill:none;stroke:#1f4fa2;stroke-width:2;stroke-linecap:butt;stroke-linejoin:miter;stroke-miterlimit:4;stroke-opacity:1;stroke-dasharray:none"
           d="m 494.313,585.039 c -70.02,-37.242 -96.524,-124.394 -59.141,-194.68 37.351,-70.261 124.449,-97.039 194.469,-59.793 70.039,37.227 96.543,124.375 59.16,194.653 -37.367,70.281 -124.434,97.051 -194.488,59.82 l 0,0 z M 428.48,498.316 c 9.778,35.094 32.883,66.243 67.071,84.43 67.488,35.863 155.34,9.891 191.336,-57.808 36.011,-67.692 15.133,-152.809 -59.727,-192.946 -71.406,-38.75 -155.972,-7.871 -192.137,60.84 -14.148,26.926 -14.285,56.641 -10.664,85.059 0.891,6.906 2.258,13.73 4.121,20.425"
           inkscape:connector-curvature="0" />
        <path
           id="path4644"
           style="fill:#1f4fa2;fill-opacity:1;fill-rule:nonzero;stroke:none"
           d="m 584.66,505.199 c -40.41,52.688 -88.816,79.653 -105.523,70.571 l -3.594,-2 c 16.082,8.765 69.547,-21.5 108.43,-72.454 46.132,-60.476 68.226,-132.089 61.586,-154.968 -0.567,-1.348 -2.735,-6.387 -2.735,-6.387 0.778,1.047 1.524,2.246 2.09,3.672 10.508,25.625 -13.418,100.5 -60.254,161.566 l 0,0"
           inkscape:connector-curvature="0" />
        <path
           id="path4646"
           style="fill:none;stroke:#1f4fa2;stroke-width:2;stroke-linecap:butt;stroke-linejoin:miter;stroke-miterlimit:4;stroke-opacity:1;stroke-dasharray:none"
           d="m 584.66,505.199 c -40.41,52.688 -88.816,79.653 -105.523,70.571 l -3.594,-2 c 16.082,8.765 69.547,-21.5 108.43,-72.454 46.132,-60.476 68.226,-132.089 61.586,-154.968 -0.567,-1.348 -2.735,-6.387 -2.735,-6.387 0.778,1.047 1.524,2.246 2.09,3.672 10.508,25.625 -13.418,100.5 -60.254,161.566 l 0,0 z"
           inkscape:connector-curvature="0" />
        <path
           id="path4648"
           style="fill:#1f4fa2;fill-opacity:1;fill-rule:nonzero;stroke:none"
           d="m 603.23,318.594 c -48.378,-1.973 -99.445,55.097 -111.429,135.644 -8.203,71.559 18.683,135.18 62.332,144.285 2.262,0.485 4.531,0.758 6.816,0.942 l 0.524,2.367 c -2.301,-0.191 -4.586,-0.484 -6.852,-0.957 -45.183,-9.527 -75.914,-71.605 -65.738,-145.504 10.789,-78.144 61.832,-140.383 113.082,-136.523 1.187,0.097 0.234,-1.219 -0.981,-1.309 l 2.246,1.055"
           inkscape:connector-curvature="0" />
        <path
           id="path4650"
           style="fill:none;stroke:#1f4fa2;stroke-width:2;stroke-linecap:butt;stroke-linejoin:miter;stroke-miterlimit:4;stroke-opacity:1;stroke-dasharray:none"
           d="m 603.23,318.594 c -48.378,-1.973 -99.445,55.097 -111.429,135.644 -8.203,71.559 18.683,135.18 62.332,144.285 2.262,0.485 4.531,0.758 6.816,0.942 l 0.524,2.367 c -2.301,-0.191 -4.586,-0.484 -6.852,-0.957 -45.183,-9.527 -75.914,-71.605 -65.738,-145.504 10.789,-78.144 61.832,-140.383 113.082,-136.523 1.187,0.097 0.234,-1.219 -0.981,-1.309 l 2.246,1.055 z"
           inkscape:connector-curvature="0" />
        <path
           id="path4652"
           style="fill:#1f4fa2;fill-opacity:1;fill-rule:nonzero;stroke:none"
           d="m 634.367,529.488 c -58.437,52.528 -144.703,52.117 -194.09,6.457 l 2.207,-0.925 c 47.715,43.835 134.95,42.32 191,-8.387 60.571,-57.238 62.7,-138.293 12.114,-185.317 l 0.054,0.227 c 52.895,48.816 49.282,133.477 -11.285,187.945 l 0,0"
           inkscape:connector-curvature="0" />
        <path
           id="path4654"
           style="fill:none;stroke:#1f4fa2;stroke-width:2;stroke-linecap:butt;stroke-linejoin:miter;stroke-miterlimit:4;stroke-opacity:1;stroke-dasharray:none"
           d="m 634.367,529.488 c -58.437,52.528 -144.703,52.117 -194.09,6.457 l 2.207,-0.925 c 47.715,43.835 134.95,42.32 191,-8.387 60.571,-57.238 62.7,-138.293 12.114,-185.317 l 0.054,0.227 c 52.895,48.816 49.282,133.477 -11.285,187.945 l 0,0 z"
           inkscape:connector-curvature="0" />
        <path
           id="path4656"
           style="fill:#1f4fa2;fill-opacity:1;fill-rule:nonzero;stroke:none"
           d="m 693.332,511.926 c 0.059,-0.969 0.137,-1.946 0.152,-2.922 0.079,-2.383 5.157,-21.738 1.114,-37.52 -7.071,-32.746 -31.09,-63.015 -66.891,-87.07 -48.203,-32.355 -105.141,-45.75 -147.371,-29.18 -14.453,4.004 -26.746,13.614 -35.594,23.723 -2.082,2.371 -3.937,4.832 -5.597,7.41 2.48,-4.734 5.46,-9.59 9.296,-13.75 35.508,-38.301 116.688,-33.906 181.063,9.336 55.332,37.168 80.387,91.192 63.828,129.973 l 0,0"
           inkscape:connector-curvature="0" />
        <path
           id="path4658"
           style="fill:none;stroke:#1f4fa2;stroke-width:2;stroke-linecap:butt;stroke-linejoin:miter;stroke-miterlimit:4;stroke-opacity:1;stroke-dasharray:none"
           d="m 693.332,511.926 c 0.059,-0.969 0.137,-1.946 0.152,-2.922 0.079,-2.383 5.157,-21.738 1.114,-37.52 -7.071,-32.746 -31.09,-63.015 -66.891,-87.07 -48.203,-32.355 -105.141,-45.75 -147.371,-29.18 -14.453,4.004 -26.746,13.614 -35.594,23.723 -2.082,2.371 -3.937,4.832 -5.597,7.41 2.48,-4.734 5.46,-9.59 9.296,-13.75 35.508,-38.301 116.688,-33.906 181.063,9.336 55.332,37.168 80.387,91.192 63.828,129.973 l 0,0 z"
           inkscape:connector-curvature="0" />
        <path
           id="path4660"
           style="fill:#1f4fa2;fill-opacity:1;fill-rule:nonzero;stroke:none"
           d="m 418.648,468.703 c 0.176,-0.344 0.352,-0.676 0.536,-1.019 18.867,-34.774 80.617,-36.981 138.754,-4.723 58.71,32.562 88.304,85.84 70.101,121.586 l -3.359,0.426 c 17.168,-33.649 -10.879,-88.196 -66.504,-119.016 -55.582,-30.879 -119.488,-29.855 -136.617,3.801 l -2.911,-1.055"
           inkscape:connector-curvature="0" />
        <path
           id="path4662"
           style="fill:none;stroke:#1f4fa2;stroke-width:2;stroke-linecap:butt;stroke-linejoin:miter;stroke-miterlimit:4;stroke-opacity:1;stroke-dasharray:none"
           d="m 418.648,468.703 c 0.176,-0.344 0.352,-0.676 0.536,-1.019 18.867,-34.774 80.617,-36.981 138.754,-4.723 58.71,32.562 88.304,85.84 70.101,121.586 l -3.359,0.426 c 17.168,-33.649 -10.879,-88.196 -66.504,-119.016 -55.582,-30.879 -119.488,-29.855 -136.617,3.801 l -2.911,-1.055 z"
           inkscape:connector-curvature="0" />
        <path
           id="path4664"
           style="fill:#1f4fa2;fill-opacity:1;fill-rule:nonzero;stroke:none"
           d="m 10.0117,23.7109 999.0783,0 L 516.867,0 10.0117,23.7109"
           inkscape:connector-curvature="0" />
      </g>
    </g>
    <g
       transform="matrix(0.31205799,0,0,-0.31205799,774.69984,135.17973)"
       inkscape:label="ink_ext_XXXXXX"
       id="g4904">
      <g
         transform="scale(0.1,0.1)"
         id="g4906">
        <path
           id="path4908"
           style="fill:#0e315f;fill-opacity:1;fill-rule:nonzero;stroke:none"
           d="m 3397.92,1030.9 -2567.26,1.52 c -1.871,0 -3.355,-1.52 -3.355,-3.35 0,-1.88 1.484,-3.34 3.355,-3.34 l 2567.26,-1.52 c 1.85,0 3.35,1.52 3.35,3.35 0,1.87 -1.5,3.34 -3.35,3.34"
           inkscape:connector-curvature="0" />
        <path
           id="path4910"
           style="fill:#0e315f;fill-opacity:1;fill-rule:nonzero;stroke:none"
           d="m 165.242,536.949 c -17.144,0 -32.664,3.16 -35.445,7.16 -2.777,3.172 -4.77,22.282 -4.77,62.141 0,46.98 0.395,56.141 1.18,56.539 0.395,0.781 9.938,1.211 22.707,1.211 42.629,0 75.258,-26.309 75.258,-68.91 0,-37.031 -26.289,-58.141 -58.93,-58.141 z m -37.859,238.539 c 1.211,1.614 12.773,3.203 25.512,3.203 22.308,0 48.183,-17.543 48.183,-56.582 0,-30.281 -15.937,-50.558 -47.789,-50.558 -15.547,0 -25.906,0.777 -27.082,2.41 -0.785,0.777 -1.18,12.32 -1.18,35.84 0,47.789 0.786,64.09 2.356,65.687 z m 59.773,-102.75 c 25.063,12.742 42.18,33.082 42.18,57.332 0,24.711 -22.664,56.602 -75.664,56.602 -17.891,0 -26.289,-0.813 -40.992,-0.813 -14.7659,0 -32.6644,0.813 -50.598,0.813 -1.1836,0 -1.1836,-3.613 0.3868,-4.024 15.9375,-1.578 24.6992,-2.777 29.4687,-5.546 5.1914,-2.793 8.3945,-11.961 8.3945,-90.403 l 0,-58.14 c 0,-78.508 -3.2031,-87.661 -8.3945,-90.399 -4.7695,-2.801 -13.5312,-3.98 -29.4687,-5.621 -1.5704,-0.359 -1.5704,-3.961 -0.3868,-3.961 17.9336,0 35.8321,0.813 50.598,0.813 14.703,0 23.465,-0.813 40.992,-0.813 70.105,0 99.582,37.453 99.582,76.453 0,33.489 -23.098,58.149 -66.098,67.707"
           inkscape:connector-curvature="0" />
        <path
           id="path4912"
           style="fill:#0e315f;fill-opacity:1;fill-rule:nonzero;stroke:none"
           d="m 461.934,648.852 c -18.719,0 -34.274,2.007 -37.442,4.757 -1.594,1.59 -2.379,9.18 -2.379,33.09 0,57.731 2.774,84.821 4.379,87.192 1.168,1.597 17.926,3.597 31.457,3.597 37.832,0 56.153,-31.078 56.153,-69.297 0,-31.07 -19.532,-59.339 -52.168,-59.339 z M 621.648,536.16 c -3.203,-0.422 -7.972,-0.422 -11.96,-0.422 -27.872,0 -60.926,34.66 -114.301,114.321 27.867,16.679 47.793,41.41 47.793,73.269 0,30.25 -25.094,63.344 -84.813,63.344 -17.539,0 -33.48,-0.813 -48.211,-0.813 -14.734,0 -31.062,0.813 -48.613,0.813 -1.172,0 -1.172,-3.613 0.426,-4.024 15.543,-1.578 22.703,-2.777 27.472,-5.546 4.77,-2.793 8.368,-11.961 8.368,-90.403 l 0,-58.14 c 0,-78.508 -3.598,-87.661 -8.368,-90.399 -4.769,-2.801 -11.929,-3.98 -27.472,-5.621 -1.598,-0.359 -1.598,-3.961 -0.426,-3.961 18.75,0 85.266,0 104.348,0 1.234,0 1.234,3.602 -0.789,3.961 -17.508,1.992 -29.039,2.82 -34.239,5.621 -5.187,2.738 -8.75,11.891 -8.75,90.399 l 0,13.089 c 15.516,-0.769 31.84,-0.769 51.742,-0.359 31.887,-54.559 53.379,-84.43 73.704,-98.359 15.546,-10.391 27.074,-13.539 51.382,-13.539 9.536,0 15.122,0.379 23.09,1.98 1.188,0.41 1.188,4.789 -0.383,4.789"
           inkscape:connector-curvature="0" />
        <path
           id="path4914"
           style="fill:#0e315f;fill-opacity:1;fill-rule:nonzero;stroke:none"
           d="m 761.824,777.102 c 4.778,2.769 15.117,3.968 30.649,5.546 1.597,0.411 1.597,4.024 0.386,4.024 -18.687,0 -84.418,0 -103.523,0 -1.184,0 -1.184,-3.613 0.781,-4.024 15.551,-1.578 25.52,-2.777 30.281,-5.546 5.168,-2.793 8.364,-11.961 8.364,-90.403 l 0,-58.14 c 0,-78.508 -3.196,-87.661 -8.364,-90.399 -4.761,-2.801 -14.73,-3.98 -30.281,-5.621 -1.965,-0.359 -1.965,-3.961 -0.781,-3.961 19.105,0 84.836,0 103.523,0 1.211,0 1.211,3.602 -0.386,3.961 -15.532,1.641 -25.871,2.82 -30.649,5.621 -4.761,2.738 -8.39,11.891 -8.39,90.399 l 0,58.14 c 0,78.442 3.629,87.61 8.39,90.403"
           inkscape:connector-curvature="0" />
        <path
           id="path4916"
           style="fill:#0e315f;fill-opacity:1;fill-rule:nonzero;stroke:none"
           d="m 1165.27,650.859 c -18.75,0 -73.31,0 -92.45,0 -1.14,0 -1.14,-4.007 0.85,-4.007 15.52,-2 25.48,-3.204 30.26,-5.973 3.16,-1.578 5.16,-10.328 5.94,-93.957 -11.53,-5.211 -29.83,-9.184 -47.37,-9.184 -75.652,0 -123.062,61.742 -123.062,128.242 0,56.532 31.855,113.5 103.952,113.5 26.66,0 53.34,-14.339 67.69,-27.902 8.36,-7.937 14.34,-21.066 15.55,-31.848 0.38,-2.351 4.8,-2.351 4.8,-0.371 0,21.469 -1.64,43.403 -2.03,57.313 0,0.816 -0.81,1.637 -2.77,1.207 -13.95,-3.207 -37.44,11.141 -79.26,11.141 -88.815,0 -136.608,-66.508 -136.608,-134.59 0,-70.5 62.133,-128.231 138.188,-128.231 33.05,0 63.73,9.16 85.62,22.27 l 0,3.601 c -0.79,78.84 1.6,86.828 4.8,89.219 4.77,3.16 9.97,3.563 25.47,5.563 2.01,0 1.61,4.007 0.43,4.007"
           inkscape:connector-curvature="0" />
        <path
           id="path4918"
           style="fill:#0e315f;fill-opacity:1;fill-rule:nonzero;stroke:none"
           d="m 1546.8,532.539 c -15.55,1.641 -22.31,2.82 -27.5,5.621 -4.81,2.738 -8.37,11.891 -8.37,90.399 l 0,58.14 c 0,78.442 3.56,87.61 8.37,90.403 5.19,2.769 11.95,3.968 27.5,5.546 1.56,0.411 1.56,4.024 0.36,4.024 -18.69,0 -78.04,0 -96.76,0 -1.18,0 -1.18,-3.613 0.39,-4.024 15.55,-1.578 22.31,-2.777 27.51,-5.546 4.77,-2.793 8.36,-11.961 8.36,-90.403 l 0,-21.129 -154.94,0 0,21.129 c 0,78.442 3.2,87.61 8.35,90.403 4.81,2.769 11.57,3.968 27.09,5.546 1.6,0.411 1.6,4.024 0.39,4.024 -18.68,0 -78.04,0 -96.76,0 -1.21,0 -1.21,-3.613 0.39,-4.024 15.55,-1.578 22.71,-2.777 27.48,-5.546 4.77,-2.793 8.36,-11.961 8.36,-90.403 l 0,-58.14 c 0,-78.508 -3.59,-87.661 -8.36,-90.399 -4.77,-2.801 -11.93,-3.98 -27.48,-5.621 -1.6,-0.359 -1.6,-3.961 -0.39,-3.961 18.72,0 78.08,0 96.76,0 1.21,0 1.21,3.602 -0.39,3.961 -15.52,1.641 -22.28,2.82 -27.09,5.621 -5.15,2.738 -8.35,11.891 -8.35,90.399 l 0,26.64 154.94,0 0,-26.64 c 0,-78.508 -3.59,-87.661 -8.36,-90.399 -5.2,-2.801 -11.96,-3.98 -27.51,-5.621 -1.57,-0.359 -1.57,-3.961 -0.39,-3.961 18.72,0 78.07,0 96.76,0 1.2,0 1.2,3.602 -0.36,3.961"
           inkscape:connector-curvature="0" />
        <path
           id="path4920"
           style="fill:#0e315f;fill-opacity:1;fill-rule:nonzero;stroke:none"
           d="m 1717.23,639.66 36.65,101.602 37.44,-101.602 -74.09,0 z m 170.04,-107.121 c -11.12,1.199 -17.09,1.641 -23.85,5.621 -5.59,3.551 -10.78,11.891 -41.85,90.399 l -22.28,58.14 c -14.37,36.242 -24.7,64.52 -36.65,99.16 -0.82,2.762 -3.99,2.762 -5.2,0 -9.54,-31.078 -22.67,-65.75 -35.02,-99.16 l -21.13,-58.14 c -28.66,-78.508 -35.81,-86.45 -39.8,-89.231 -5.97,-4.379 -13.16,-5.59 -25.11,-6.789 -2,-0.359 -1.21,-3.961 0,-3.961 18.71,0 62.95,0 74.87,0 1.21,0 1.6,3.602 0,3.961 -16.73,1.641 -25.48,2.41 -25.48,9.57 0,8.36 7.58,32.661 27.5,86.45 l 0.4,1.191 81.24,0 0.4,-1.191 c 23.87,-59.75 31.42,-81.637 31.42,-88.45 0,-5.929 -9.93,-6.371 -22.28,-7.57 -1.56,-0.359 -1.21,-3.961 0,-3.961 18.72,0 64.12,0 82.82,0 1.24,0 1.6,3.602 0,3.961"
           inkscape:connector-curvature="0" />
        <path
           id="path4922"
           style="fill:#0e315f;fill-opacity:1;fill-rule:nonzero;stroke:none"
           d="m 2301.88,532.539 c -15.93,1.641 -22.73,2.82 -27.86,5.621 -5.62,2.738 -8,11.891 -16.75,90.399 l -5.96,58.14 c -3.6,36.242 -5.59,64.52 -7.58,99.16 0,1.981 -4.4,2.371 -4.79,0.813 L 2135.41,565.211 2023.49,786.672 c -0.81,1.558 -4.77,1.168 -5.2,-0.813 -0.78,-31.078 -3.17,-65.75 -5.16,-99.16 l -3.96,-58.14 c -5.61,-78.508 -10.77,-86.45 -13.94,-89.231 -4.41,-3.969 -13.14,-5.148 -29.11,-6.789 -1.56,-0.359 -1.99,-3.961 -0.78,-3.961 19.11,0 64.91,0 84.03,0 1.2,0 1.6,3.602 0,3.961 -10.76,1.199 -21.51,1.992 -25.49,5.199 -4.38,3.16 -9.57,12.313 -2.39,92.813 l 6.37,90 98.4,-192.77 c 1.18,-1.582 3.59,-1.191 3.96,-0.371 l 91.6,194.699 9.15,-93.55 c 8.78,-78.508 6.39,-88.45 2.41,-91.219 -3.99,-3.16 -12.76,-3.602 -23.52,-4.801 -1.96,-0.359 -1.18,-3.961 0,-3.961 18.75,0 74.09,0 93.21,0 1.2,0 0.39,3.602 -1.19,3.961"
           inkscape:connector-curvature="0" />
        <path
           id="path4924"
           style="fill:#0e315f;fill-opacity:1;fill-rule:nonzero;stroke:none"
           d="m 2763.45,787.059 c -19.14,0 -63.73,0 -75.66,0 -1.21,0 -1.6,-4 0,-4 10.75,-0.809 21.5,-1.629 24.69,-3.188 3.18,-2.383 3.97,-8.351 -24.27,-53.391 l -43.87,-73.25 -39.39,66.5 c -29.08,52.551 -32.28,58.961 -29.08,60.961 3.2,1.957 13.16,1.957 22.31,2.368 1.58,0 1.19,4 0,4 -19.11,0 -66.54,0 -85.22,0 -1.19,0 -2.03,-4 0,-4 11.13,-0.809 16.72,-0.411 23.49,-3.188 5.58,-1.992 8.75,-7.941 39,-56.152 l 22.34,-35.449 c 10.75,-17.508 19.5,-32.25 28.25,-47.801 l 0,-11.528 c 0,-78.89 -3.58,-88.043 -8.35,-90.781 -4.78,-2.801 -15.13,-3.98 -30.65,-5.621 -1.63,-0.359 -1.63,-3.961 -0.42,-3.961 18.71,0 84.84,0 103.56,0 1.17,0 1.17,3.602 -0.42,3.961 -15.52,1.641 -25.88,2.82 -30.66,5.621 -4.79,2.738 -8.36,11.891 -8.36,90.781 l 0,13.168 c 8.76,15.121 18.3,30.629 27.86,46.161 l 21.51,35.449 c 29.11,48.211 33.85,53.769 37.83,55.761 6.01,2.379 13.94,2.77 25.51,3.579 1.57,0 1.21,4 0,4"
           inkscape:connector-curvature="0" />
        <path
           id="path4926"
           style="fill:#0e315f;fill-opacity:1;fill-rule:nonzero;stroke:none"
           d="m 2876.58,665.98 c 0,51.399 27.89,111.899 99.18,111.899 63.73,0 108.71,-63.699 108.71,-128.641 0,-51.359 -27.87,-111.898 -98.75,-111.898 -63.71,0 -109.14,63.699 -109.14,128.64 z m 236.58,-5.191 c 0,72.102 -56.56,128.231 -129.83,128.231 -81.24,0 -135.41,-66.079 -135.41,-134.59 0,-72.078 56.94,-128.231 129.83,-128.231 81.66,0 135.41,66.082 135.41,134.59"
           inkscape:connector-curvature="0" />
        <path
           id="path4928"
           style="fill:#0e315f;fill-opacity:1;fill-rule:nonzero;stroke:none"
           d="m 3460.45,775.879 c 4.37,3.992 11.92,5.191 27.83,6.769 1.64,0.411 1.21,4.024 0,4.024 -18.69,0 -66.08,0 -84.8,0 -1.19,0 -2,-3.613 0,-4.024 15.54,-1.578 25.11,-2.777 29.49,-6.769 3.17,-2.777 6.77,-11.141 6.77,-89.18 l 0,-64.918 c 0,-44.191 -26.3,-80.07 -75.31,-80.07 -52.55,0 -84.02,35.059 -84.02,84.43 l 0,60.558 c 0,78.442 3.2,87.61 8.37,90.403 4.8,2.769 13.16,3.968 28.68,5.546 1.99,0.411 1.57,4.024 0.39,4.024 -18.72,0 -79.65,0 -98.75,0 -1.18,0 -1.18,-3.613 0.39,-4.024 15.94,-1.578 22.7,-2.777 27.47,-5.546 4.77,-2.793 8.37,-11.961 8.37,-90.403 l 0,-67.699 c 0,-51.801 37.82,-92.801 99.96,-92.801 62.52,0 98.36,45.781 98.36,93.571 l 0,66.929 c 0,78.039 3.6,86.403 6.8,89.18"
           inkscape:connector-curvature="0" />
        <path
           id="path4930"
           style="fill:#0e315f;fill-opacity:1;fill-rule:nonzero;stroke:none"
           d="m 3871.08,786.672 c -18.72,0 -73.27,0 -92.42,0 -1.18,0 -1.57,-4.813 0,-5.242 16.76,-1.168 26.69,-3.121 31.5,-6.758 4.37,-3.563 10.35,-9.531 10.74,-87.973 l 1.57,-111.097 -197.91,211.847 c -1.2,1.981 -7.15,1.172 -7.15,-0.777 1.97,-31.082 1.97,-66.563 2.36,-99.973 l 0.78,-58.14 c 0.82,-78.508 -3.56,-84.059 -6.73,-87.27 -4.41,-3.551 -13.56,-5.93 -29.49,-7.551 -1.58,-0.379 -1.19,-5.16 0,-5.16 18.71,0 70.91,0 91.6,0 1.2,0 1.59,5.16 0,5.16 -11.14,0.442 -25.48,4.422 -29.05,6.782 -5.16,4.402 -10.36,15.539 -11.17,88.039 l -1.61,109.91 197.55,-210.688 c 1.99,-2 7.19,-1.191 6.79,0.797 -2.02,31.043 -1.6,66.512 -2.02,99.981 l -0.4,58.14 c -0.36,78.442 4.02,84.031 7.16,87.192 4.38,3.597 11.96,5.98 27.9,7.539 1.6,0.429 1.21,5.242 0,5.242"
           inkscape:connector-curvature="0" />
        <path
           id="path4932"
           style="fill:#0e315f;fill-opacity:1;fill-rule:nonzero;stroke:none"
           d="m 4233.89,650.859 c -18.72,0 -73.27,0 -92.39,0 -1.21,0 -1.21,-4.007 0.79,-4.007 15.54,-2 25.48,-3.204 30.27,-5.973 3.18,-1.578 5.17,-10.328 5.99,-93.957 -11.58,-5.211 -29.89,-9.184 -47.4,-9.184 -75.66,0 -123.06,61.742 -123.06,128.242 0,56.532 31.85,113.5 103.92,113.5 26.68,0 53.37,-14.339 67.75,-27.902 8.33,-7.937 14.3,-21.066 15.48,-31.848 0.42,-2.351 4.8,-2.351 4.8,-0.371 0,21.469 -1.6,43.403 -2.02,57.313 0,0.816 -0.75,1.637 -2.78,1.207 -13.91,-3.207 -37.41,11.141 -79.24,11.141 -88.8,0 -136.61,-66.508 -136.61,-134.59 0,-70.5 62.14,-128.231 138.2,-128.231 33.05,0 63.74,9.16 85.65,22.27 l 0,3.601 c -0.84,78.84 1.6,86.828 4.78,89.219 4.76,3.16 9.95,3.563 25.48,5.563 1.99,0 1.56,4.007 0.39,4.007"
           inkscape:connector-curvature="0" />
        <path
           id="path4934"
           style="fill:#0e315f;fill-opacity:1;fill-rule:nonzero;stroke:none"
           d="m 1048.89,205.871 c -25.43,0 -34.6,0 -60.538,0 -0.84,0 -1.094,-3.269 0,-3.531 10.781,-1.051 16.998,-2.699 19.988,-5.129 2.44,-2.18 4.86,-6.199 4.86,-59.172 l 0,-41.8788 c 0,-30.0118 -16.489,-54.3086 -49.727,-54.3086 -33.789,0 -55.68,23.7773 -55.68,57.2695 l 0,38.9179 c 0,53.242 2.418,58.109 5.684,59.742 3.234,1.86 9.179,3.508 19.714,4.559 1.086,0.262 1.086,3.531 0.27,3.531 -25.668,0 -44.828,0 -69.984,0 -0.809,0 -0.809,-3.269 0.273,-3.531 10.531,-1.051 15.129,-2.699 18.391,-4.559 3.496,-1.633 5.668,-6.5 5.668,-59.742 l 0,-45.9492 c 0,-35.121 27.296,-62.9804 69.449,-62.9804 42.414,0 68.102,31.0898 68.102,63.539 l 0,45.3906 c 0,52.973 2.42,56.992 4.86,59.172 2.69,2.43 8.1,4.078 18.67,5.129 1.32,0.262 0.81,3.531 0,3.531"
           inkscape:connector-curvature="0" />
        <path
           id="path4936"
           style="fill:#0e315f;fill-opacity:1;fill-rule:nonzero;stroke:none"
           d="m 1365.35,205.871 c -25.69,0 -39.43,0 -64.59,0 -0.81,0 -1.35,-3.269 0,-3.531 11.09,-0.781 17.85,-2.16 21.09,-4.559 2.95,-2.48 7,-6.5 7.3,-59.742 L 1330.21,66.4492 1196.7,206.41 c -0.78,1.371 -6.49,0.789 -6.19,-0.539 1.36,-21.07 1.36,-45.133 1.63,-67.832 l 0.55,-39.4374 c 0.51,-53.25 -2.48,-57.0313 -4.62,-59.1719 -2.96,-2.4297 -9.46,-4.0703 -19.99,-5.168 -1.36,-0.2734 -0.81,-3.5117 0,-3.5117 25.66,0 36.77,0 64.06,0 0.79,0 1.33,3.5117 0,3.5117 -7.3,0.2774 -17.05,2.9766 -19.47,4.5899 -3.77,3 -7.01,10.539 -7.55,59.75 l -1.09,70.7964 133.21,-139.1792 c 1.36,-1.3672 6.22,-0.7969 6.22,0.5312 -1.33,21.0898 -1.33,45.1484 -1.33,67.8516 l -0.3,39.4374 c -0.51,53.242 2.45,56.992 4.89,59.172 2.68,2.43 8.08,4.078 18.63,5.129 1.36,0.262 0.81,3.531 0,3.531"
           inkscape:connector-curvature="0" />
        <path
           id="path4938"
           style="fill:#0e315f;fill-opacity:1;fill-rule:nonzero;stroke:none"
           d="m 1549.67,197.781 c 3.25,1.86 9.99,3.508 20.53,4.559 1.36,0.262 1.08,3.531 0.27,3.531 -25.66,0 -47.82,0 -72.97,0 -0.78,0 -0.78,-3.269 0.26,-3.531 10.55,-1.051 17.58,-2.699 20.83,-4.559 3.24,-1.633 5.69,-6.5 5.69,-59.742 l 0,-39.4374 c 0,-53.25 -2.45,-57.8516 -5.69,-59.75 -3.25,-1.8516 -10.28,-3.4922 -20.83,-4.5899 -1.04,-0.2734 -1.04,-3.5117 -0.26,-3.5117 25.66,0 47.85,0 72.97,0 0.81,0 1.09,3.2383 -0.27,3.5117 -10.54,1.0977 -17.28,2.7383 -20.53,4.5899 -3.54,1.8984 -5.95,6.5 -5.95,59.75 l 0,39.4374 c 0,53.242 2.41,58.109 5.95,59.742"
           inkscape:connector-curvature="0" />
        <path
           id="path4940"
           style="fill:#0e315f;fill-opacity:1;fill-rule:nonzero;stroke:none"
           d="m 1872.32,205.871 c -19.44,0 -38.61,0 -55.4,0 -0.79,0 -1.33,-3.269 0,-3.531 11.38,-1.051 15.97,-3.77 15.97,-8.641 0,-5.91 -2.45,-18.629 -17.06,-55.66 l -30.49,-77.5781 -29.47,77.5781 c -16.75,40.539 -19.74,52.422 -19.74,56.992 0,4.348 5.4,6.258 15.43,7.309 1.33,0.262 0.78,3.531 0,3.531 -25.97,0 -41.91,0 -63.52,0 -0.82,0 -1.09,-3.269 0,-3.531 8.09,-0.781 13.76,-2.16 17.83,-4.852 4.59,-2.957 9.46,-11.879 29.17,-59.449 l 15.95,-39.4374 c 10.02,-24.6407 17.3,-43.7813 25.68,-67.3203 0.55,-1.8594 8.67,-1.8594 9.45,0 7.28,21.0976 16.77,44.6171 25.67,67.3203 l 15.7,39.4374 c 21.34,53.242 26.17,56.992 28.93,59.172 3.76,2.719 7.54,4.348 15.9,5.129 1.09,0.262 0.81,3.531 0,3.531"
           inkscape:connector-curvature="0" />
        <path
           id="path4942"
           style="fill:#0e315f;fill-opacity:1;fill-rule:nonzero;stroke:none"
           d="m 2104.46,67.5313 c -2.17,-8.4219 -4.86,-14.3321 -8.63,-18.6915 -4.89,-5.121 -14.34,-8.3593 -31.1,-8.3593 -15.94,0 -21.59,1.6289 -24.85,5.1406 -3.53,3.5195 -5.94,18.3906 -5.94,52.9805 l 0,18.3784 21.88,0 c 18.93,0 23.25,-1.929 25.67,-4.351 2.72,-2.41 4.07,-7.801 4.07,-12.9688 0,-1.0586 3.78,-1.0586 3.78,-0.25 0,15.3708 0.81,24.3198 1.35,39.1988 0,0.782 -3.53,1.012 -3.8,0 -1.6,-9.75 -5.1,-12.75 -30.8,-12.75 l -22.15,0 0,39.192 c 0,17.027 0.27,27.84 0.81,30.558 2.69,0.262 12.71,0.539 23.25,0.539 19.17,0 27.56,-2.449 32.15,-7.308 3.78,-4.039 4.59,-10.02 4.59,-17.02 0,-1.64 3.53,-1.91 3.53,-0.82 1.87,14.609 2.42,25.148 3.23,34.602 0,0.578 -0.54,1.078 -1.6,1.078 -8.39,-1.078 -17.87,-1.321 -40.54,-1.321 -17.57,0 -48.68,0.243 -69.74,0.512 -0.82,0 -0.82,-3.269 0.27,-3.531 10.8,-1.051 15.39,-2.699 18.65,-4.559 3.24,-1.633 5.68,-6.5 5.68,-59.742 l 0,-39.4374 c 0,-53.25 -2.44,-57.8516 -5.68,-59.75 -3.26,-1.8516 -7.85,-3.4922 -18.65,-4.5899 -1.09,-0.2734 -1.09,-3.5117 -0.27,-3.5117 19.19,0.2813 27.87,0.5313 45.13,0.5313 22.7,0 39.46,-0.8204 55.94,-0.8204 6.74,0 10,1.9102 11.9,4.8985 2.15,3.8125 4.32,17.0195 5.4,31.332 0.28,1.3594 -3.25,2.4375 -3.53,0.8399"
           inkscape:connector-curvature="0" />
        <path
           id="path4944"
           style="fill:#0e315f;fill-opacity:1;fill-rule:nonzero;stroke:none"
           d="m 2310.66,113.98 c -12.7,0 -20.25,1.622 -23.24,4.34 -1.36,1.629 -2.18,3.508 -2.18,19.719 0,39.18 2.46,53.762 4.09,55.93 1.31,1.64 9.44,3.519 18.66,3.519 25.64,0 36.74,-18.91 36.74,-44.879 0,-21.07 -11.93,-38.629 -34.07,-38.629 z m 109.72,-77.2886 c -1.9,-0.2617 -5.4,-0.2617 -7.82,-0.2617 -18.93,0 -41.62,21.8711 -77.56,75.9103 18.91,11.64 32.42,28.961 32.42,50.57 0,20.531 -18.65,42.961 -59.2,42.961 -11.86,0 -22.67,-0.512 -32.66,-0.512 -10.02,0 -22.46,0.512 -34.34,0.512 -0.84,0 -1.08,-3.269 0.28,-3.531 10.54,-1.051 15.13,-2.699 18.36,-4.559 3.53,-1.633 5.68,-6.5 5.68,-59.742 l 0,-39.4374 c 0,-53.25 -2.15,-57.8516 -5.68,-59.75 -3.23,-1.8516 -7.82,-3.4922 -18.36,-4.5899 -1.36,-0.2734 -1.12,-3.5117 -0.28,-3.5117 25.4,0 48.11,0 73.5,0 0.82,0 0.82,3.2383 -0.28,3.5117 -11.86,1.0977 -19.99,2.4297 -23.52,4.5899 -3.22,1.8984 -5.68,6.5 -5.68,59.75 l 0,7.5584 c 10.3,-0.57 18.67,-0.82 31.93,-0.289 21.87,-37.2421 36.46,-55.9296 50.25,-65.3905 10.55,-7.0313 19.73,-9.1992 36.21,-9.1992 6.49,0 11.65,0.2578 17.3,1.3398 0.53,0.3203 0.53,4.0703 -0.55,4.0703"
           inkscape:connector-curvature="0" />
        <path
           id="path4946"
           style="fill:#0e315f;fill-opacity:1;fill-rule:nonzero;stroke:none"
           d="m 2544.41,172.09 c 0,16.75 11.35,27.289 28.35,27.289 10.02,0 18.15,-3.77 24.1,-10 5.37,-5.41 9.15,-14.578 9.99,-23.238 0,-1.332 3.5,-1.332 3.74,-0.25 0.57,14.32 0,27 0,36.449 0,0.582 -0.51,1.09 -1.6,0.84 -9.72,-2.442 -13.79,4.832 -34.3,4.832 -24.88,0 -48.4,-17.274 -48.4,-45.102 0,-44.59 71.89,-51.351 71.89,-91.6287 0,-18.0821 -11.34,-32.7032 -32.69,-32.7032 -15.68,0 -26.76,8.0938 -34.06,18.3907 -4.08,5.6718 -7.58,15.1523 -8.39,25.3906 0,1.6601 -3.74,1.6601 -3.74,0.2695 -1.37,-13.7695 -1.37,-28.0703 0.5,-37.0078 0.83,-3.2695 16.76,-16.1992 42.19,-16.1992 27.29,0 56.99,17.0078 56.99,50.7969 0,44.0112 -74.57,58.0902 -74.57,91.8712"
           inkscape:connector-curvature="0" />
        <path
           id="path4948"
           style="fill:#0e315f;fill-opacity:1;fill-rule:nonzero;stroke:none"
           d="m 2808.71,197.781 c 3.22,1.86 9.99,3.508 20.53,4.559 1.36,0.262 1.11,3.531 0.27,3.531 -25.66,0 -47.83,0 -72.97,0 -0.82,0 -0.82,-3.269 0.26,-3.531 10.57,-1.051 17.58,-2.699 20.81,-4.559 3.23,-1.633 5.7,-6.5 5.7,-59.742 l 0,-39.4374 c 0,-53.25 -2.47,-57.8516 -5.7,-59.75 -3.23,-1.8516 -10.24,-3.4922 -20.81,-4.5899 -1.08,-0.2734 -1.08,-3.5117 -0.26,-3.5117 25.69,0 47.84,0 72.97,0 0.84,0 1.09,3.2383 -0.27,3.5117 -10.54,1.0977 -17.31,2.7383 -20.53,4.5899 -3.5,1.8984 -5.98,6.5 -5.98,59.75 l 0,39.4374 c 0,53.242 2.48,58.109 5.98,59.742"
           inkscape:connector-curvature="0" />
        <path
           id="path4950"
           style="fill:#0e315f;fill-opacity:1;fill-rule:nonzero;stroke:none"
           d="m 3117.6,208.289 c -4.59,-1.609 -14.31,-3.508 -78.93,-3.508 -47.01,0 -68.08,1.399 -77.56,3 -1.09,0 -1.86,-0.582 -1.86,-1.101 -0.55,-9.192 -2.18,-24.059 -3.82,-37.828 0,-1.082 3.51,-1.922 3.82,-0.532 1.04,6.481 3.74,14.578 8.08,18.36 6.76,5.922 19.2,8.929 47.01,8.929 5.98,0 10.84,-0.308 13.52,-0.578 0.82,-2.64 1.09,-13.461 1.09,-30.519 l 0,-65.9104 c 0,-53.25 -2.45,-57.8516 -5.68,-59.75 -3.53,-1.8516 -10.26,-3.4922 -20.83,-4.5899 -1.05,-0.2734 -1.05,-3.5117 -0.23,-3.5117 25.65,0 47.81,0 72.93,0 0.82,0 0.82,3.2383 -0.24,3.5117 -10.53,1.0977 -17.3,2.7383 -20.83,4.5899 -3.2,1.8984 -5.67,6.5 -5.67,59.75 l 0,65.9104 c 0,17.058 0.27,27.879 1.08,30.519 2.69,0.27 6.22,0.578 12.16,0.578 28.94,0 41.65,-3.808 46.74,-8.929 3.53,-3.782 4.89,-11.071 4.89,-17.828 0,-1.34 3.78,-1.34 3.78,-0.532 1.63,14.039 2.14,28.641 2.14,38.879 0,0.582 -0.23,1.403 -1.59,1.09"
           inkscape:connector-curvature="0" />
        <path
           id="path4952"
           style="fill:#0e315f;fill-opacity:1;fill-rule:nonzero;stroke:none"
           d="m 3407.85,206.18 c -24.06,0 -38.67,0 -55.4,0 -0.82,0 -1.36,-3.578 0,-3.578 7.28,-0.493 12.14,-1.59 14.32,-2.672 2.14,-1.61 4.82,-4.321 -14.32,-34.879 l -27.86,-45.41 -26.99,45.961 c -19.76,30.546 -19.76,33.507 -17.58,34.578 2.18,1.379 6.49,2.16 12.69,2.422 1.35,0 0.83,3.578 0,3.578 -25.64,0 -35.12,0 -60.78,0 -0.82,0 -1.09,-3.578 0,-3.578 7.82,-0.262 11.6,-1.043 16.19,-2.672 3.77,-1.61 7.29,-4.059 27.86,-36.739 l 15.12,-24.07 c 7.28,-11.891 13.23,-21.891 19.17,-32.43 l 0,-7.8512 c 0,-53.4882 -2.42,-58.0898 -5.68,-59.9882 -3.21,-1.8516 -9.98,-3.4922 -20.79,-4.5899 -1.09,-0.2734 -1.09,-3.5117 -0.27,-3.5117 25.96,0 47.85,0 73.21,0 0.85,0 1.09,3.2383 -0.25,3.5117 -10.53,1.0977 -17.29,2.7383 -20.79,4.5899 -3.26,1.8984 -5.68,6.5 -5.68,59.9882 l 0,8.9302 c 5.92,10.281 12.4,20.781 18.91,31.351 l 14.58,24.07 c 19.73,32.68 24.63,34.829 27.28,36.188 4.08,1.633 9.21,2.73 17.06,3.223 1.33,0 0.78,3.578 0,3.578"
           inkscape:connector-curvature="0" />
        <path
           id="path4954"
           style="fill:#0e315f;fill-opacity:1;fill-rule:nonzero;stroke:none"
           d="m 2580.01,2010.08 c 0.2,-0.03 0.45,-0.06 0.45,-0.06 11.68,-2.75 19.63,-6.59 28.56,-14.28 11.57,-9.83 14.52,-21.41 14.52,-41.35 l -0.03,-363.25 c 0,-175.11 95.83,-323.8 386.61,-323.8 290.76,0 386.6,148.69 386.6,323.8 l 0,363.38 c 0,19.94 1.2,32.57 14.57,39.38 17.97,8.78 28.35,11.55 49.16,16.12 0,0 0.24,0.06 0.42,0.12 1,0.24 1.05,3.07 -0.42,3.07 l -369.87,0 c -1.49,0 -1.46,-2.83 -0.45,-3.07 0.17,-0.03 0.41,-0.09 0.41,-0.09 20.84,-4.6 31.19,-7.37 49.15,-16.12 13.39,-6.8 14.49,-19.54 14.49,-39.5 l 0,-369.59 c 0,-84.24 -48.24,-148.98 -144.06,-148.98 -95.8,0 -144.1,64.74 -144.1,148.98 l 0.02,369.45 c 0,19.94 1.15,32.8 14.55,39.61 17.96,8.78 28.36,11.55 49.18,16.12 0,0 0.22,0.06 0.4,0.12 0.99,0.24 1.02,3.07 -0.46,3.07 l -349.22,-0.03 c -1.49,0 -1.45,-2.87 -0.48,-3.1"
           inkscape:connector-curvature="0" />
        <path
           id="path4956"
           style="fill:#0e315f;fill-opacity:1;fill-rule:nonzero;stroke:none"
           d="m 1232.27,1422.15 -108.39,0 0,179.84 97.49,0 c 64.91,0 144.37,0 144.37,-89.92 0,-66.58 -56.88,-89.92 -133.47,-89.92 z m -108.39,452.86 112.37,0 c 73.27,0 116.27,-11.36 116.27,-77.94 0,-43.28 -26.69,-81.89 -113.28,-81.89 l -115.36,0 0,159.83 z m 364.99,-203.78 c -0.53,0.19 -0.61,1.4 0,1.58 56.39,17.6 108.26,58.97 108.26,158.89 0,135.6 -91.57,181.51 -291.35,181.51 l -478.893,0 c -1.477,0 -1.457,-2.83 -0.449,-3.07 0.171,-0.06 0.417,-0.09 0.417,-0.09 20.833,-4.6 31.188,-7.37 49.192,-16.12 13.332,-6.84 14.391,-19.45 14.391,-39.38 l -0.09,-615 c 0,-19.96 -1.145,-32.85 -14.528,-39.64 -17.988,-8.75 -28.371,-11.53 -49.179,-16.08 0,0 -0.235,-0.07 -0.379,-0.13 -1.008,-0.24 -1.071,-3.07 0.379,-3.07 1.511,0 497.429,0 497.429,0 209.78,0 298.02,83.26 298.02,213.1 0,96.06 -44.68,155.47 -133.22,177.5"
           inkscape:connector-curvature="0" />
        <path
           id="path4958"
           style="fill:#0e315f;fill-opacity:1;fill-rule:nonzero;stroke:none"
           d="m 2546.87,2010.05 c 0,0 0.22,0.03 0.42,0.09 0.98,0.24 1.01,3.04 -0.46,3.04 l -338.29,0.03 c -1.49,0 -1.46,-2.83 -0.46,-3.07 0.18,-0.03 0.46,-0.09 0.46,-0.09 12.46,0 31.67,-0.91 30.4,-30.05 -1.06,-25.29 -131.09,-209.47 -146.28,-237.09 -45.62,69.12 -145.5,209.59 -146.46,237.09 -0.78,22.52 17.99,30.02 34.6,30.02 0,0 0.21,0.06 0.39,0.12 1.03,0.24 1.06,3.07 -0.39,3.07 l -359.37,0 c -1.47,0 -1.39,-2.83 -0.39,-3.07 0.18,-0.06 0.39,-0.09 0.39,-0.09 15.19,-2.94 22.53,-4.66 40.49,-13.41 2.11,-1.03 7.15,-4.35 9.09,-6.01 11.41,-9.6 20.25,-20.35 34.17,-41.04 l 253.37,-375.12 0.02,-234.94 c 0,-19.96 -1.13,-32.83 -14.52,-39.65 -17.99,-8.75 -28.35,-11.52 -49.18,-16.12 0,0 -0.21,0 -0.42,-0.06 -0.96,-0.24 -1.03,-3.07 0.45,-3.07 l 389.98,0 c 1.46,0 1.46,2.83 0.49,3.07 -0.21,0.06 -0.43,0.06 -0.43,0.06 -20.8,4.6 -31.18,7.37 -49.18,16.12 -13.37,6.82 -14.52,19.64 -14.52,39.61 l 0.03,233.36 253.7,376.72 c 13.92,20.68 22.78,31.46 34.21,41.06 1.93,1.66 6.19,5.17 9.02,6.94 10.48,6.8 15.94,9.58 28.67,12.48"
           inkscape:connector-curvature="0" />
      </g>
    </g>
  </g>
</svg>
